<svg width="309" height="473" viewBox="0 0 309 473" fill="none" xmlns="http://www.w3.org/2000/svg">
<rect y="0.86084" width="309" height="471.42" rx="30" fill="#43C6FE"/>
<path d="M26.0312 35.7983H29.8438C33.4062 35.7358 36.2812 34.7879 38.4688 32.9546C40.6771 31.1213 41.7812 28.7879 41.7812 25.9546C41.7812 22.7254 40.7917 20.1629 38.8125 18.2671C36.8542 16.3713 34.125 15.4233 30.625 15.4233C27.2083 15.4233 24.3958 16.4233 22.1875 18.4233C19.9792 20.4233 18.875 23.0483 18.875 26.2983H17.1875C17.1875 23.8817 17.7708 21.715 18.9375 19.7983C20.1042 17.8817 21.7188 16.3921 23.7812 15.3296C25.8438 14.2671 28.125 13.7358 30.625 13.7358C34.5625 13.7358 37.6875 14.8504 40 17.0796C42.3125 19.2879 43.4688 22.2879 43.4688 26.0796C43.4688 28.4963 42.6979 30.6525 41.1562 32.5483C39.6354 34.4442 37.5729 35.7879 34.9688 36.5796C37.9479 37.2671 40.2708 38.5588 41.9375 40.4546C43.625 42.3504 44.4688 44.7983 44.4688 47.7983C44.4688 51.6733 43.2292 54.7567 40.75 57.0483C38.2708 59.34 34.9896 60.4858 30.9062 60.4858C28.1562 60.4858 25.6146 59.8921 23.2812 58.7046C20.9479 57.5171 19.1875 55.9442 18 53.9858C16.8125 52.0275 16.2188 49.7671 16.2188 47.2046H17.9062C17.9062 50.5379 19.1354 53.3088 21.5938 55.5171C24.0521 57.7046 27.1562 58.7983 30.9062 58.7983C34.6354 58.7983 37.5417 57.84 39.625 55.9233C41.7292 53.9858 42.7812 51.3192 42.7812 47.9233C42.7812 44.5692 41.6562 42.0067 39.4062 40.2358C37.1771 38.465 33.9062 37.5692 29.5938 37.5483H26.0312V35.7983Z" fill="white"/>
<path d="M144.32 231.212H152.898C160.914 231.071 167.383 228.939 172.305 224.814C177.273 220.689 179.758 215.439 179.758 209.064C179.758 201.798 177.531 196.032 173.078 191.767C168.672 187.501 162.531 185.368 154.656 185.368C146.969 185.368 140.641 187.618 135.672 192.118C130.703 196.618 128.219 202.525 128.219 209.837H124.422C124.422 204.4 125.734 199.525 128.359 195.212C130.984 190.9 134.617 187.548 139.258 185.157C143.898 182.767 149.031 181.571 154.656 181.571C163.516 181.571 170.547 184.079 175.75 189.095C180.953 194.064 183.555 200.814 183.555 209.345C183.555 214.782 181.82 219.634 178.352 223.9C174.93 228.165 170.289 231.189 164.43 232.97C171.133 234.517 176.359 237.423 180.109 241.689C183.906 245.954 185.805 251.462 185.805 258.212C185.805 266.931 183.016 273.868 177.438 279.025C171.859 284.181 164.477 286.759 155.289 286.759C149.102 286.759 143.383 285.423 138.133 282.751C132.883 280.079 128.922 276.54 126.25 272.134C123.578 267.728 122.242 262.642 122.242 256.876H126.039C126.039 264.376 128.805 270.61 134.336 275.579C139.867 280.501 146.852 282.962 155.289 282.962C163.68 282.962 170.219 280.806 174.906 276.493C179.641 272.134 182.008 266.134 182.008 258.493C182.008 250.946 179.477 245.181 174.414 241.196C169.398 237.212 162.039 235.196 152.336 235.15H144.32V231.212Z" fill="white"/>
<path d="M270.031 432.469H273.844C277.406 432.407 280.281 431.459 282.469 429.625C284.677 427.792 285.781 425.459 285.781 422.625C285.781 419.396 284.792 416.834 282.812 414.938C280.854 413.042 278.125 412.094 274.625 412.094C271.208 412.094 268.396 413.094 266.188 415.094C263.979 417.094 262.875 419.719 262.875 422.969H261.188C261.188 420.553 261.771 418.386 262.938 416.469C264.104 414.553 265.719 413.063 267.781 412C269.844 410.938 272.125 410.407 274.625 410.407C278.562 410.407 281.688 411.521 284 413.75C286.312 415.959 287.469 418.959 287.469 422.75C287.469 425.167 286.698 427.323 285.156 429.219C283.635 431.115 281.573 432.459 278.969 433.25C281.948 433.938 284.271 435.23 285.938 437.125C287.625 439.021 288.469 441.469 288.469 444.469C288.469 448.344 287.229 451.428 284.75 453.719C282.271 456.011 278.99 457.157 274.906 457.157C272.156 457.157 269.615 456.563 267.281 455.375C264.948 454.188 263.188 452.615 262 450.657C260.812 448.698 260.219 446.438 260.219 443.875H261.906C261.906 447.209 263.135 449.98 265.594 452.188C268.052 454.375 271.156 455.469 274.906 455.469C278.635 455.469 281.542 454.511 283.625 452.594C285.729 450.657 286.781 447.99 286.781 444.594C286.781 441.24 285.656 438.678 283.406 436.907C281.177 435.136 277.906 434.24 273.594 434.219H270.031V432.469Z" fill="white"/>
</svg>
