<svg width="309" height="472" viewBox="0 0 309 472" fill="none" xmlns="http://www.w3.org/2000/svg">
<rect width="309" height="471.419" rx="30" fill="#43C6FE"/>
<path d="M39.3125 44.9062H47.1875V46.5938H39.3125V59H37.625V46.5938H15.5625V45.6562L37.2812 13.5H39.3125V44.9062ZM18.1875 44.9062H37.625V15.5312L35 19.8438L18.1875 44.9062Z" fill="white"/>
<path d="M174.203 252.781H191.922V256.577H174.203V284.491H170.406V256.577H120.766V254.468L169.633 182.116H174.203V252.781ZM126.672 252.781H170.406V186.687L164.5 196.39L126.672 252.781Z" fill="white"/>
<path d="M283.312 441.576H291.188V443.263H283.312V455.67H281.625V443.263H259.562V442.326L281.281 410.17H283.312V441.576ZM262.188 441.576H281.625V412.201L279 416.513L262.188 441.576Z" fill="white"/>
</svg>
