<svg width="309" height="472" viewBox="0 0 309 472" fill="none" xmlns="http://www.w3.org/2000/svg">
<rect y="0.12085" width="309" height="471.419" rx="30" fill="#43C6FE"/>
<path d="M39.25 12.9958V14.6833C32.875 14.6833 27.9271 16.5688 24.4062 20.3396C20.8854 24.1104 18.9896 29.4021 18.7188 36.2146C19.9271 34.0688 21.6771 32.3708 23.9688 31.1208C26.2604 29.85 28.7708 29.2146 31.5 29.2146C35.5 29.2146 38.6875 30.5792 41.0625 33.3083C43.4583 36.0375 44.6562 39.6417 44.6562 44.1208C44.6562 47.0167 44.1146 49.6625 43.0312 52.0583C41.9479 54.4542 40.4167 56.3396 38.4375 57.7146C36.4583 59.0688 34.25 59.7458 31.8125 59.7458C29.0208 59.7458 26.5 59.1 24.25 57.8083C22 56.5167 20.2396 54.6729 18.9688 52.2771C17.6979 49.8813 17.0417 47.1521 17 44.0896V38.4958C17 30.4125 18.9062 24.1417 22.7188 19.6833C26.5312 15.225 32.0417 12.9958 39.25 12.9958ZM31.2812 30.9021C28.3646 30.9021 25.6875 31.7458 23.25 33.4333C20.8333 35.1 19.3125 37.1938 18.6875 39.7146V43.7146C18.6875 48.0063 19.9062 51.475 22.3438 54.1208C24.7812 56.7667 27.9375 58.0896 31.8125 58.0896C35.0417 58.0896 37.7083 56.7458 39.8125 54.0583C41.9167 51.35 42.9688 48.0375 42.9688 44.1208C42.9688 40.0792 41.9271 36.8708 39.8438 34.4958C37.7604 32.1 34.9062 30.9021 31.2812 30.9021Z" fill="white"/>
<line x1="19" y1="65.4958" x2="44" y2="65.4958" stroke="white" stroke-width="1.25"/>
<path d="M174.062 180.831V184.628C159.719 184.628 148.586 188.87 140.664 197.354C132.742 205.839 128.477 217.745 127.867 233.073C130.586 228.245 134.523 224.425 139.68 221.612C144.836 218.753 150.484 217.323 156.625 217.323C165.625 217.323 172.797 220.393 178.141 226.534C183.531 232.675 186.227 240.784 186.227 250.862C186.227 257.378 185.008 263.331 182.57 268.721C180.133 274.112 176.688 278.354 172.234 281.448C167.781 284.495 162.812 286.018 157.328 286.018C151.047 286.018 145.375 284.565 140.312 281.659C135.25 278.753 131.289 274.604 128.43 269.214C125.57 263.823 124.094 257.682 124 250.792V238.206C124 220.018 128.289 205.909 136.867 195.878C145.445 185.846 157.844 180.831 174.062 180.831ZM156.133 221.12C149.57 221.12 143.547 223.018 138.062 226.815C132.625 230.565 129.203 235.276 127.797 240.948V249.948C127.797 259.604 130.539 267.409 136.023 273.362C141.508 279.315 148.609 282.292 157.328 282.292C164.594 282.292 170.594 279.268 175.328 273.221C180.062 267.128 182.43 259.675 182.43 250.862C182.43 241.768 180.086 234.55 175.398 229.206C170.711 223.815 164.289 221.12 156.133 221.12Z" fill="white"/>
<line x1="130" y1="298.121" x2="182" y2="298.121" stroke="white" stroke-width="2"/>
<path d="M284.25 399.996V401.683C277.875 401.683 272.927 403.569 269.406 407.34C265.885 411.11 263.99 416.402 263.719 423.215C264.927 421.069 266.677 419.371 268.969 418.121C271.26 416.85 273.771 416.215 276.5 416.215C280.5 416.215 283.688 417.579 286.062 420.308C288.458 423.038 289.656 426.642 289.656 431.121C289.656 434.017 289.115 436.663 288.031 439.058C286.948 441.454 285.417 443.34 283.438 444.715C281.458 446.069 279.25 446.746 276.812 446.746C274.021 446.746 271.5 446.1 269.25 444.808C267 443.517 265.24 441.673 263.969 439.277C262.698 436.881 262.042 434.152 262 431.09V425.496C262 417.413 263.906 411.142 267.719 406.683C271.531 402.225 277.042 399.996 284.25 399.996ZM276.281 417.902C273.365 417.902 270.688 418.746 268.25 420.433C265.833 422.1 264.312 424.194 263.688 426.715V430.715C263.688 435.006 264.906 438.475 267.344 441.121C269.781 443.767 272.938 445.09 276.812 445.09C280.042 445.09 282.708 443.746 284.812 441.058C286.917 438.35 287.969 435.038 287.969 431.121C287.969 427.079 286.927 423.871 284.844 421.496C282.76 419.1 279.906 417.902 276.281 417.902Z" fill="white"/>
<line x1="264" y1="452.496" x2="289" y2="452.496" stroke="white" stroke-width="1.25"/>
</svg>
