<svg width="309" height="473" viewBox="0 0 309 473" fill="none" xmlns="http://www.w3.org/2000/svg">
<rect y="0.959961" width="309" height="471.418" rx="30" fill="#43C6FE"/>
<path d="M43.8125 26.0225C43.8125 28.5641 43.0208 30.7933 41.4375 32.71C39.875 34.6058 37.8438 35.9287 35.3438 36.6787C38.3229 37.4704 40.6979 38.9079 42.4688 40.9912C44.2396 43.0745 45.125 45.4495 45.125 48.1162C45.125 51.9704 43.8021 55.012 41.1562 57.2412C38.5312 59.4704 35.0312 60.585 30.6562 60.585C26.1979 60.585 22.6562 59.4704 20.0312 57.2412C17.4271 55.012 16.125 51.9704 16.125 48.1162C16.125 45.4287 16.9792 43.0537 18.6875 40.9912C20.4167 38.9079 22.7708 37.4704 25.75 36.6787C23.25 35.9287 21.2292 34.6058 19.6875 32.71C18.1667 30.7933 17.4062 28.5641 17.4062 26.0225C17.4062 22.2725 18.6042 19.3037 21 17.1162C23.4167 14.9287 26.5938 13.835 30.5312 13.835C34.4896 13.835 37.6875 14.9495 40.125 17.1787C42.5833 19.4079 43.8125 22.3558 43.8125 26.0225ZM43.4062 48.2725C43.4062 45.1475 42.2083 42.5745 39.8125 40.5537C37.4167 38.5329 34.3438 37.5225 30.5938 37.5225C26.8229 37.5225 23.75 38.5329 21.375 40.5537C19 42.5537 17.8125 45.1266 17.8125 48.2725C17.8125 51.4808 18.9688 54.0537 21.2812 55.9912C23.6146 57.9287 26.7396 58.8975 30.6562 58.8975C34.4896 58.8975 37.5729 57.9287 39.9062 55.9912C42.2396 54.0329 43.4062 51.46 43.4062 48.2725ZM42.125 25.8662C42.125 22.9079 41.0104 20.4495 38.7812 18.4912C36.5521 16.512 33.8021 15.5225 30.5312 15.5225C27.1771 15.5225 24.4271 16.4704 22.2812 18.3662C20.1562 20.262 19.0938 22.762 19.0938 25.8662C19.0938 28.8245 20.1562 31.2308 22.2812 33.085C24.4062 34.9183 27.1771 35.835 30.5938 35.835C33.9688 35.835 36.7292 34.9079 38.875 33.0537C41.0417 31.1787 42.125 28.7829 42.125 25.8662Z" fill="white"/>
<path d="M184.328 209.092C184.328 214.811 182.547 219.827 178.984 224.139C175.469 228.405 170.898 231.381 165.273 233.069C171.977 234.85 177.32 238.084 181.305 242.772C185.289 247.459 187.281 252.803 187.281 258.803C187.281 267.475 184.305 274.319 178.352 279.334C172.445 284.35 164.57 286.858 154.727 286.858C144.695 286.858 136.727 284.35 130.82 279.334C124.961 274.319 122.031 267.475 122.031 258.803C122.031 252.756 123.953 247.413 127.797 242.772C131.688 238.084 136.984 234.85 143.688 233.069C138.062 231.381 133.516 228.405 130.047 224.139C126.625 219.827 124.914 214.811 124.914 209.092C124.914 200.655 127.609 193.975 133 189.053C138.438 184.131 145.586 181.67 154.445 181.67C163.352 181.67 170.547 184.178 176.031 189.194C181.562 194.209 184.328 200.842 184.328 209.092ZM183.414 259.155C183.414 252.124 180.719 246.334 175.328 241.788C169.938 237.241 163.023 234.967 154.586 234.967C146.102 234.967 139.188 237.241 133.844 241.788C128.5 246.288 125.828 252.077 125.828 259.155C125.828 266.374 128.43 272.163 133.633 276.522C138.883 280.881 145.914 283.061 154.727 283.061C163.352 283.061 170.289 280.881 175.539 276.522C180.789 272.116 183.414 266.327 183.414 259.155ZM180.531 208.741C180.531 202.084 178.023 196.553 173.008 192.147C167.992 187.694 161.805 185.467 154.445 185.467C146.898 185.467 140.711 187.6 135.883 191.866C131.102 196.131 128.711 201.756 128.711 208.741C128.711 215.397 131.102 220.811 135.883 224.983C140.664 229.108 146.898 231.17 154.586 231.17C162.18 231.17 168.391 229.084 173.219 224.913C178.094 220.694 180.531 215.303 180.531 208.741Z" fill="white"/>
<path d="M287.812 422.689C287.812 425.231 287.021 427.46 285.438 429.376C283.875 431.272 281.844 432.595 279.344 433.345C282.323 434.137 284.698 435.574 286.469 437.658C288.24 439.741 289.125 442.116 289.125 444.783C289.125 448.637 287.802 451.679 285.156 453.908C282.531 456.137 279.031 457.251 274.656 457.251C270.198 457.251 266.656 456.137 264.031 453.908C261.427 451.679 260.125 448.637 260.125 444.783C260.125 442.095 260.979 439.72 262.688 437.658C264.417 435.574 266.771 434.137 269.75 433.345C267.25 432.595 265.229 431.272 263.688 429.376C262.167 427.46 261.406 425.231 261.406 422.689C261.406 418.939 262.604 415.97 265 413.783C267.417 411.595 270.594 410.501 274.531 410.501C278.49 410.501 281.688 411.616 284.125 413.845C286.583 416.074 287.812 419.022 287.812 422.689ZM287.406 444.939C287.406 441.814 286.208 439.241 283.812 437.22C281.417 435.199 278.344 434.189 274.594 434.189C270.823 434.189 267.75 435.199 265.375 437.22C263 439.22 261.812 441.793 261.812 444.939C261.812 448.147 262.969 450.72 265.281 452.658C267.615 454.595 270.74 455.564 274.656 455.564C278.49 455.564 281.573 454.595 283.906 452.658C286.24 450.699 287.406 448.126 287.406 444.939ZM286.125 422.533C286.125 419.574 285.01 417.116 282.781 415.158C280.552 413.179 277.802 412.189 274.531 412.189C271.177 412.189 268.427 413.137 266.281 415.033C264.156 416.929 263.094 419.429 263.094 422.533C263.094 425.491 264.156 427.897 266.281 429.751C268.406 431.585 271.177 432.501 274.594 432.501C277.969 432.501 280.729 431.574 282.875 429.72C285.042 427.845 286.125 425.449 286.125 422.533Z" fill="white"/>
</svg>
