<svg width="309" height="472" viewBox="0 0 309 472" fill="none" xmlns="http://www.w3.org/2000/svg">
<rect y="0.378418" width="309" height="471.422" rx="30" fill="#43C6FE"/>
<path d="M181.023 233.966C178.539 239.356 174.672 243.716 169.422 247.044C164.219 250.325 158.336 251.966 151.773 251.966C146.148 251.966 141.086 250.466 136.586 247.466C132.086 244.419 128.57 240.247 126.039 234.95C123.508 229.653 122.242 223.841 122.242 217.513C122.242 210.81 123.531 204.669 126.109 199.091C128.688 193.466 132.297 189.06 136.938 185.872C141.578 182.685 146.711 181.091 152.336 181.091C162.883 181.091 170.922 184.536 176.453 191.427C181.984 198.271 184.773 208.161 184.82 221.099V232.841C184.82 250.138 180.977 263.333 173.289 272.427C165.602 281.474 154.281 286.091 139.328 286.278H135.953L136.094 282.481H139.117C152.805 282.341 163.211 278.169 170.336 269.966C177.461 261.763 181.023 249.763 181.023 233.966ZM151.773 248.169C158.711 248.169 164.852 246.13 170.195 242.052C175.539 237.974 179.148 232.56 181.023 225.81V221.45C181.023 209.591 178.562 200.544 173.641 194.31C168.766 188.028 161.758 184.888 152.617 184.888C147.602 184.888 143.055 186.364 138.977 189.317C134.898 192.271 131.711 196.302 129.414 201.411C127.164 206.474 126.039 211.841 126.039 217.513C126.039 223.091 127.141 228.271 129.344 233.052C131.547 237.786 134.594 241.489 138.484 244.161C142.375 246.833 146.805 248.169 151.773 248.169Z" fill="white"/>
<line x1="128" y1="298.378" x2="180" y2="298.378" stroke="white" stroke-width="2"/>
<path d="M42.3433 36.7534C41.2391 39.1493 39.5203 41.0868 37.187 42.5659C34.8745 44.0243 32.2599 44.7534 29.3433 44.7534C26.8433 44.7534 24.5933 44.0868 22.5933 42.7534C20.5933 41.3993 19.0308 39.5451 17.9058 37.1909C16.7808 34.8368 16.2183 32.2534 16.2183 29.4409C16.2183 26.4618 16.7912 23.7326 17.937 21.2534C19.0828 18.7534 20.687 16.7951 22.7495 15.3784C24.812 13.9618 27.0933 13.2534 29.5933 13.2534C34.2808 13.2534 37.8537 14.7847 40.312 17.8472C42.7703 20.8888 44.0099 25.2847 44.0308 31.0347V36.2534C44.0308 43.9409 42.3224 49.8055 38.9058 53.8472C35.4891 57.868 30.4578 59.9201 23.812 60.0034H22.312L22.3745 58.3159H23.7183C29.8016 58.2534 34.4266 56.3993 37.5933 52.7534C40.7599 49.1076 42.3433 43.7743 42.3433 36.7534ZM29.3433 43.0659C32.4266 43.0659 35.1558 42.1597 37.5308 40.3472C39.9058 38.5347 41.5099 36.1284 42.3433 33.1284V31.1909C42.3433 25.9201 41.2495 21.8993 39.062 19.1284C36.8953 16.3368 33.7808 14.9409 29.7183 14.9409C27.4891 14.9409 25.4683 15.5972 23.6558 16.9097C21.8433 18.2222 20.4266 20.0138 19.4058 22.2847C18.4058 24.5347 17.9058 26.9201 17.9058 29.4409C17.9058 31.9201 18.3953 34.2222 19.3745 36.3472C20.3537 38.4513 21.7078 40.0972 23.437 41.2847C25.1662 42.4722 27.1349 43.0659 29.3433 43.0659Z" fill="white"/>
<line x1="17" y1="65.7534" x2="42" y2="65.7534" stroke="white" stroke-width="1.25"/>
<path d="M286.344 419.753C285.24 422.149 283.521 424.087 281.188 425.566C278.875 427.024 276.26 427.753 273.344 427.753C270.844 427.753 268.594 427.087 266.594 425.753C264.594 424.399 263.031 422.545 261.906 420.191C260.781 417.837 260.219 415.253 260.219 412.441C260.219 409.462 260.792 406.733 261.938 404.253C263.083 401.753 264.688 399.795 266.75 398.378C268.812 396.962 271.094 396.253 273.594 396.253C278.281 396.253 281.854 397.785 284.312 400.847C286.771 403.889 288.01 408.285 288.031 414.035V419.253C288.031 426.941 286.323 432.806 282.906 436.847C279.49 440.868 274.458 442.92 267.812 443.003H266.312L266.375 441.316H267.719C273.802 441.253 278.427 439.399 281.594 435.753C284.76 432.108 286.344 426.774 286.344 419.753ZM273.344 426.066C276.427 426.066 279.156 425.16 281.531 423.347C283.906 421.535 285.51 419.128 286.344 416.128V414.191C286.344 408.92 285.25 404.899 283.062 402.128C280.896 399.337 277.781 397.941 273.719 397.941C271.49 397.941 269.469 398.597 267.656 399.91C265.844 401.222 264.427 403.014 263.406 405.285C262.406 407.535 261.906 409.92 261.906 412.441C261.906 414.92 262.396 417.222 263.375 419.347C264.354 421.451 265.708 423.097 267.438 424.285C269.167 425.472 271.135 426.066 273.344 426.066Z" fill="white"/>
<line x1="261" y1="448.753" x2="286" y2="448.753" stroke="white" stroke-width="1.25"/>
</svg>
