<svg width="358" height="534" viewBox="0 0 358 534" fill="none" xmlns="http://www.w3.org/2000/svg">
<g filter="url(#filter0_d)">
<rect x="111" y="158.416" width="240.848" height="367.445" rx="30" fill="#2F2E2E"/>
<mask id="mask0" mask-type="alpha" maskUnits="userSpaceOnUse" x="111" y="158" width="241" height="368">
<rect x="111" y="158.416" width="240.848" height="367.445" rx="30" fill="#2F2E2E"/>
</mask>
<g mask="url(#mask0)">
<path d="M307.053 394.647C277.318 437.784 241.823 470.776 208.576 489.297C175.176 507.903 144.818 511.536 124.589 497.591C104.359 483.647 96.9531 453.983 102.459 416.148C107.939 378.488 126.143 333.577 155.878 290.44C185.612 247.303 221.108 214.311 254.354 195.79C287.755 177.184 318.113 173.551 338.342 187.496C358.571 201.44 365.977 231.104 360.472 268.939C354.992 306.599 336.788 351.51 307.053 394.647Z" fill="#ED6969" stroke="white" stroke-width="5"/>
</g>
</g>
<g filter="url(#filter1_d)">
<rect x="65" y="86.4158" width="271" height="413.445" rx="30" fill="#2F2E2E"/>
<mask id="mask1" mask-type="alpha" maskUnits="userSpaceOnUse" x="65" y="86" width="271" height="414">
<rect x="65" y="86.4158" width="271" height="413.445" rx="30" fill="#2F2E2E"/>
</mask>
<g mask="url(#mask1)">
<path d="M285.854 352.398C252.376 400.966 212.403 438.125 174.944 458.993C137.331 479.946 103.025 484.105 80.1121 468.31C57.1988 452.516 48.8798 418.975 55.0797 376.368C61.2542 333.936 81.7596 283.358 115.238 234.79C148.717 186.222 188.689 149.064 226.148 128.196C263.761 107.243 298.067 103.084 320.98 118.878C343.894 134.673 352.213 168.213 346.013 210.82C339.838 253.252 319.333 303.83 285.854 352.398Z" fill="#ED6969" stroke="white" stroke-width="5"/>
</g>
</g>
<g filter="url(#filter2_d)">
<rect x="2" y="0.415771" width="309" height="471.419" rx="30" fill="#2F2E2E"/>
<mask id="mask2" mask-type="alpha" maskUnits="userSpaceOnUse" x="2" y="0" width="309" height="472">
<rect x="2" y="0.415771" width="309" height="471.419" rx="30" fill="#2F2E2E"/>
</mask>
<g mask="url(#mask2)">
<path d="M254.111 303.894C215.915 359.306 170.299 401.717 127.531 425.542C84.6091 449.453 45.3285 454.275 19.0323 436.148C-7.26397 418.022 -16.7332 379.596 -9.65816 330.976C-2.60853 282.529 20.7972 224.809 58.994 169.396C97.1908 113.984 142.806 71.5733 185.574 47.7482C228.496 23.8374 267.777 19.0153 294.073 37.1417C320.369 55.2681 329.839 93.694 322.764 142.315C315.714 190.761 292.308 248.481 254.111 303.894Z" fill="#ED6969" stroke="white" stroke-width="5"/>
</g>
</g>
<defs>
<filter id="filter0_d" x="109" y="158.416" width="248.848" height="375.445" filterUnits="userSpaceOnUse" color-interpolation-filters="sRGB">
<feFlood flood-opacity="0" result="BackgroundImageFix"/>
<feColorMatrix in="SourceAlpha" type="matrix" values="0 0 0 0 0 0 0 0 0 0 0 0 0 0 0 0 0 0 127 0"/>
<feOffset dx="2" dy="4"/>
<feGaussianBlur stdDeviation="2"/>
<feColorMatrix type="matrix" values="0 0 0 0 0 0 0 0 0 0 0 0 0 0 0 0 0 0 0.25 0"/>
<feBlend mode="normal" in2="BackgroundImageFix" result="effect1_dropShadow"/>
<feBlend mode="normal" in="SourceGraphic" in2="effect1_dropShadow" result="shape"/>
</filter>
<filter id="filter1_d" x="63" y="86.4158" width="279" height="421.445" filterUnits="userSpaceOnUse" color-interpolation-filters="sRGB">
<feFlood flood-opacity="0" result="BackgroundImageFix"/>
<feColorMatrix in="SourceAlpha" type="matrix" values="0 0 0 0 0 0 0 0 0 0 0 0 0 0 0 0 0 0 127 0"/>
<feOffset dx="2" dy="4"/>
<feGaussianBlur stdDeviation="2"/>
<feColorMatrix type="matrix" values="0 0 0 0 0 0 0 0 0 0 0 0 0 0 0 0 0 0 0.25 0"/>
<feBlend mode="normal" in2="BackgroundImageFix" result="effect1_dropShadow"/>
<feBlend mode="normal" in="SourceGraphic" in2="effect1_dropShadow" result="shape"/>
</filter>
<filter id="filter2_d" x="0" y="0.415771" width="317" height="479.419" filterUnits="userSpaceOnUse" color-interpolation-filters="sRGB">
<feFlood flood-opacity="0" result="BackgroundImageFix"/>
<feColorMatrix in="SourceAlpha" type="matrix" values="0 0 0 0 0 0 0 0 0 0 0 0 0 0 0 0 0 0 127 0"/>
<feOffset dx="2" dy="4"/>
<feGaussianBlur stdDeviation="2"/>
<feColorMatrix type="matrix" values="0 0 0 0 0 0 0 0 0 0 0 0 0 0 0 0 0 0 0.25 0"/>
<feBlend mode="normal" in2="BackgroundImageFix" result="effect1_dropShadow"/>
<feBlend mode="normal" in="SourceGraphic" in2="effect1_dropShadow" result="shape"/>
</filter>
</defs>
</svg>
