<svg width="309" height="472" viewBox="0 0 309 472" fill="none" xmlns="http://www.w3.org/2000/svg">
<rect y="0.185547" width="309" height="471.419" rx="30" fill="#43C6FE"/>
<path d="M27.7656 35.813H38.1484V38.438H27.7656V49.7349H24.9297V38.438H14.7578V35.813H24.9297V24.8911H27.7656V35.813ZM64.6797 53.1567H43.3047V51.0005L55 37.7349C56.9375 35.5005 58.2812 33.6567 59.0312 32.2036C59.7812 30.7505 60.1562 29.3364 60.1562 27.9614C60.1562 25.8052 59.5234 24.1021 58.2578 22.8521C56.9922 21.5864 55.25 20.9536 53.0312 20.9536C50.7344 20.9536 48.875 21.688 47.4531 23.1567C46.0469 24.6255 45.3438 26.5317 45.3438 28.8755H42.5547C42.5547 26.9536 42.9844 25.2036 43.8438 23.6255C44.7188 22.0474 45.9531 20.813 47.5469 19.9224C49.1562 19.0161 50.9844 18.563 53.0312 18.563C56.1562 18.563 58.5938 19.3833 60.3438 21.0239C62.1094 22.6646 62.9922 24.8989 62.9922 27.7271C62.9922 29.3208 62.4922 31.063 61.4922 32.9536C60.5078 34.8442 58.7656 37.2036 56.2656 40.0317L46.75 50.7896H64.6797V53.1567Z" fill="white"/>
<path d="M254.766 434.476H265.148V437.101H254.766V448.397H251.93V437.101H241.758V434.476H251.93V423.554H254.766V434.476ZM291.68 451.819H270.305V449.663L282 436.397C283.938 434.163 285.281 432.319 286.031 430.866C286.781 429.413 287.156 427.999 287.156 426.624C287.156 424.468 286.523 422.765 285.258 421.515C283.992 420.249 282.25 419.616 280.031 419.616C277.734 419.616 275.875 420.351 274.453 421.819C273.047 423.288 272.344 425.194 272.344 427.538H269.555C269.555 425.616 269.984 423.866 270.844 422.288C271.719 420.71 272.953 419.476 274.547 418.585C276.156 417.679 277.984 417.226 280.031 417.226C283.156 417.226 285.594 418.046 287.344 419.687C289.109 421.327 289.992 423.562 289.992 426.39C289.992 427.983 289.492 429.726 288.492 431.616C287.508 433.507 285.766 435.866 283.266 438.694L273.75 449.452H291.68V451.819Z" fill="white"/>
<rect x="135.5" y="105.342" width="108.017" height="167.422" rx="27.5" stroke="white" stroke-width="5"/>
<rect x="69.5" y="199.029" width="108.017" height="167.421" rx="27.5" fill="#43C6FE" stroke="white" stroke-width="5"/>
</svg>
