<svg width="309" height="473" viewBox="0 0 309 473" fill="none" xmlns="http://www.w3.org/2000/svg">
<rect x="0.000488281" y="0.516602" width="309" height="471.419" rx="30" fill="#43C6FE"/>
<path d="M43.3412 16.2615L42.0568 33.1363C41.9955 33.9413 41.0549 34.3456 40.4286 33.8361L25.4526 21.6525C24.8263 21.1431 25.0308 20.1398 25.8064 19.916L42.0668 15.2248C42.7369 15.0315 43.3941 15.5661 43.3412 16.2615Z" fill="#43C6FE" stroke="white" stroke-width="2"/>
<path d="M32.8145 27.3723C32.8145 27.3723 23.6689 38.0497 22.3852 40.192C21.1015 42.3344 19.8175 47.005 26.1932 49.0941" stroke="white" stroke-width="2"/>
<path d="M13.2877 67.4416L14.5721 50.5668C14.6334 49.7618 15.574 49.3575 16.2003 49.867L31.1763 62.0506C31.8026 62.5601 31.5981 63.5633 30.8225 63.7871L14.5621 68.4783C13.892 68.6716 13.2348 68.137 13.2877 67.4416Z" fill="#43C6FE" stroke="white" stroke-width="2"/>
<path d="M23.8144 56.3309C23.8144 56.3309 32.96 45.6534 34.2437 43.5111C35.5274 41.3688 36.8114 36.6981 30.4357 34.609" stroke="white" stroke-width="2"/>
<path d="M228.036 115.471L222.057 194.031C221.598 200.068 214.543 203.1 209.846 199.279L140.125 142.559C135.429 138.738 136.962 131.214 142.78 129.535L218.479 107.696C223.504 106.246 228.433 110.256 228.036 115.471Z" fill="#43C6FE" stroke="white" stroke-width="5"/>
<path d="M174.942 168.468C174.942 168.468 132.032 218.531 126.029 228.592C120.026 238.654 114.1 260.637 144.309 270.685" stroke="white" stroke-width="5"/>
<path d="M80.9652 356.981L86.9444 278.422C87.4039 272.384 94.459 269.352 99.1558 273.173L168.876 329.893C173.573 333.714 172.039 341.238 166.222 342.917L90.5225 364.756C85.4971 366.206 80.5682 362.196 80.9652 356.981Z" fill="#43C6FE" stroke="white" stroke-width="5"/>
<path d="M134.013 303.519C134.013 303.519 176.766 253.605 182.767 243.59C188.768 233.575 194.771 211.741 164.966 201.975" stroke="white" stroke-width="5"/>
<path d="M291.341 408.261L290.057 425.136C289.996 425.941 289.055 426.346 288.429 425.836L273.453 413.653C272.826 413.143 273.031 412.14 273.806 411.916L290.067 407.225C290.737 407.031 291.394 407.566 291.341 408.261Z" fill="#43C6FE" stroke="white" stroke-width="2"/>
<path d="M280.815 419.372C280.815 419.372 271.669 430.05 270.385 432.192C269.101 434.334 267.818 439.005 274.193 441.094" stroke="white" stroke-width="2"/>
<path d="M261.288 459.442L262.572 442.567C262.633 441.762 263.574 441.358 264.2 441.867L279.176 454.051C279.803 454.56 279.598 455.563 278.822 455.787L262.562 460.478C261.892 460.672 261.235 460.137 261.288 459.442Z" fill="#43C6FE" stroke="white" stroke-width="2"/>
<path d="M271.814 448.331C271.814 448.331 280.96 437.653 282.244 435.511C283.527 433.369 284.811 428.698 278.436 426.609" stroke="white" stroke-width="2"/>
</svg>
