<svg width="309" height="472" viewBox="0 0 309 472" fill="none" xmlns="http://www.w3.org/2000/svg">
<rect x="0.000488281" y="0.219727" width="309" height="471.419" rx="30" fill="#43C6FE"/>
<path d="M42.0668 14.9279C42.7369 14.7346 43.3941 15.2692 43.3412 15.9646L42.0568 32.8394C41.9955 33.6444 41.0549 34.0487 40.4286 33.5392L25.4526 21.3557C24.8263 20.8462 25.0308 19.8429 25.8064 19.6191L42.0668 14.9279Z" fill="#43C6FE" stroke="white" stroke-width="2"/>
<path d="M32.8145 27.0754C32.8145 27.0754 23.6689 37.7529 22.3852 39.8952C21.1015 42.0375 19.8175 46.7081 26.1932 48.7972" stroke="white" stroke-width="2"/>
<path d="M14.5621 68.1815C13.892 68.3748 13.2348 67.8401 13.2877 67.1448L14.5721 50.27C14.6334 49.465 15.574 49.0607 16.2003 49.5701L31.1763 61.7537C31.8026 62.2632 31.5981 63.2664 30.8225 63.4902L14.5621 68.1815Z" fill="#43C6FE" stroke="white" stroke-width="2"/>
<path d="M23.8144 56.034C23.8144 56.034 32.96 45.3565 34.2437 43.2142C35.5274 41.0719 36.8114 36.4013 30.4357 34.3122" stroke="white" stroke-width="2"/>
<path d="M219.478 120.294C224.504 118.844 229.433 122.854 229.036 128.07L223.057 206.629C222.597 212.667 215.542 215.699 210.845 211.878L141.125 155.158C136.428 151.337 137.961 143.812 143.779 142.134L219.478 120.294Z" fill="#43C6FE" stroke="white" stroke-width="5"/>
<path d="M175.942 181.066C175.942 181.066 133.031 231.129 127.028 241.191C121.025 251.252 115.099 273.235 145.308 283.283" stroke="white" stroke-width="5"/>
<path d="M91.5221 377.355C86.4966 378.805 81.5678 374.795 81.9647 369.58L87.9439 291.02C88.4034 284.983 95.4585 281.95 100.155 285.771L169.875 342.491C174.572 346.312 173.039 353.837 167.221 355.515L91.5221 377.355Z" fill="#43C6FE" stroke="white" stroke-width="5"/>
<path d="M135.012 316.118C135.012 316.118 177.766 266.203 183.767 256.189C189.768 246.174 195.77 224.34 165.966 214.574" stroke="white" stroke-width="5"/>
<path d="M290.067 406.928C290.737 406.735 291.394 407.269 291.341 407.965L290.057 424.839C289.996 425.644 289.055 426.049 288.429 425.539L273.453 413.356C272.826 412.846 273.031 411.843 273.806 411.619L290.067 406.928Z" fill="#43C6FE" stroke="white" stroke-width="2"/>
<path d="M280.815 419.075C280.815 419.075 271.669 429.753 270.385 431.895C269.101 434.037 267.818 438.708 274.193 440.797" stroke="white" stroke-width="2"/>
<path d="M262.562 460.181C261.892 460.375 261.235 459.84 261.288 459.145L262.572 442.27C262.633 441.465 263.574 441.061 264.2 441.57L279.176 453.754C279.803 454.263 279.598 455.266 278.822 455.49L262.562 460.181Z" fill="#43C6FE" stroke="white" stroke-width="2"/>
<path d="M271.814 448.034C271.814 448.034 280.96 437.357 282.244 435.214C283.527 433.072 284.811 428.401 278.436 426.312" stroke="white" stroke-width="2"/>
</svg>
