<svg width="310" height="472" viewBox="0 0 310 472" fill="none" xmlns="http://www.w3.org/2000/svg">
<rect x="0.516602" y="0.439453" width="309" height="471.419" rx="30" fill="#43C6FE"/>
<path d="M43.8573 16.1843L42.5729 33.0591C42.5117 33.8641 41.571 34.2684 40.9447 33.759L25.9687 21.5754C25.3424 21.0659 25.5469 20.0627 26.3226 19.8389L42.583 15.1476C43.253 14.9543 43.9102 15.489 43.8573 16.1843Z" fill="#43C6FE" stroke="white" stroke-width="2"/>
<path d="M33.3306 27.2951C33.3306 27.2951 24.185 37.9726 22.9013 40.1149C21.6176 42.2572 20.3336 46.9278 26.7093 49.0169" stroke="white" stroke-width="2"/>
<path d="M13.8039 67.3645L15.0882 50.4897C15.1495 49.6847 16.0902 49.2804 16.7164 49.7899L31.6925 61.9734C32.3187 62.4829 32.1143 63.4862 31.3386 63.71L15.0782 68.4012C14.4081 68.5945 13.7509 68.0599 13.8039 67.3645Z" fill="#43C6FE" stroke="white" stroke-width="2"/>
<path d="M24.3305 56.2537C24.3305 56.2537 33.4762 45.5762 34.7599 43.4339C36.0436 41.2916 37.3275 36.621 30.9519 34.5319" stroke="white" stroke-width="2"/>
<path d="M229.552 128.289L223.573 206.849C223.113 212.886 216.058 215.919 211.361 212.098L141.641 155.378C136.944 151.557 138.478 144.032 144.295 142.354L219.995 120.514C225.02 119.064 229.949 123.074 229.552 128.289Z" fill="#43C6FE" stroke="white" stroke-width="5"/>
<path d="M176.458 181.286C176.458 181.286 133.547 231.349 127.544 241.411C121.541 251.472 115.615 273.455 145.824 283.503" stroke="white" stroke-width="5"/>
<path d="M82.4808 369.8L88.46 291.24C88.9195 285.203 95.9746 282.17 100.671 285.991L170.392 342.711C175.088 346.532 173.555 354.057 167.738 355.735L92.0382 377.575C87.0127 379.025 82.0839 375.015 82.4808 369.8Z" fill="#43C6FE" stroke="white" stroke-width="5"/>
<path d="M135.528 316.338C135.528 316.338 178.282 266.423 184.283 256.408C190.284 246.394 196.286 224.56 166.482 214.794" stroke="white" stroke-width="5"/>
<path d="M291.857 408.184L290.573 425.059C290.512 425.864 289.571 426.268 288.945 425.759L273.969 413.575C273.342 413.066 273.547 412.063 274.323 411.839L290.583 407.148C291.253 406.954 291.91 407.489 291.857 408.184Z" fill="#43C6FE" stroke="white" stroke-width="2"/>
<path d="M281.331 419.295C281.331 419.295 272.185 429.973 270.901 432.115C269.618 434.257 268.334 438.928 274.709 441.017" stroke="white" stroke-width="2"/>
<path d="M261.804 459.364L263.088 442.49C263.149 441.685 264.09 441.28 264.716 441.79L279.692 453.973C280.319 454.483 280.114 455.486 279.339 455.71L263.078 460.401C262.408 460.594 261.751 460.06 261.804 459.364Z" fill="#43C6FE" stroke="white" stroke-width="2"/>
<path d="M272.33 448.254C272.33 448.254 281.476 437.576 282.76 435.434C284.044 433.292 285.327 428.621 278.952 426.532" stroke="white" stroke-width="2"/>
</svg>
