<svg width="309" height="473" viewBox="0 0 309 473" fill="none" xmlns="http://www.w3.org/2000/svg">
<rect y="0.76123" width="309" height="471.418" rx="30" fill="#43C6FE"/>
<mask id="path-2-inside-1" fill="white">
<path d="M249 236.036C249 287.674 207.139 329.536 155.5 329.536C133.8 329.536 113.827 322.144 97.9615 309.74C76.0715 292.627 62 265.975 62 236.036C62 184.397 103.861 142.536 155.5 142.536C179.278 142.536 200.982 151.411 217.482 166.031C236.814 183.16 249 208.175 249 236.036Z"/>
</mask>
<path d="M249 236.036C249 287.674 207.139 329.536 155.5 329.536C133.8 329.536 113.827 322.144 97.9615 309.74C76.0715 292.627 62 265.975 62 236.036C62 184.397 103.861 142.536 155.5 142.536C179.278 142.536 200.982 151.411 217.482 166.031C236.814 183.16 249 208.175 249 236.036Z" fill="#43C6FE"/>
<path d="M99.8837 311.339L219.404 167.629L215.56 164.432L96.0394 308.142L99.8837 311.339ZM97.9615 309.74L101.041 305.801L97.9615 309.74ZM217.482 166.031L214.166 169.773L217.482 166.031ZM244 236.036C244 284.913 204.377 324.536 155.5 324.536V334.536C209.9 334.536 254 290.436 254 236.036H244ZM67 236.036C67 187.158 106.623 147.536 155.5 147.536V137.536C101.1 137.536 57 181.636 57 236.036H67ZM155.5 324.536C134.956 324.536 116.059 317.541 101.041 305.801L94.882 313.679C111.596 326.746 132.645 334.536 155.5 334.536V324.536ZM101.041 305.801C80.3109 289.595 67 264.371 67 236.036H57C57 267.578 71.832 295.659 94.882 313.679L101.041 305.801ZM155.5 147.536C178.01 147.536 198.546 155.933 214.166 169.773L220.798 162.288C203.419 146.89 180.546 137.536 155.5 137.536V147.536ZM214.166 169.773C232.473 185.994 244 209.665 244 236.036H254C254 206.684 241.156 180.326 220.798 162.288L214.166 169.773Z" fill="white" mask="url(#path-2-inside-1)"/>
<mask id="path-4-inside-2" fill="white">
<path d="M56 33.5356C56 45.6859 46.1503 55.5356 34 55.5356C28.8942 55.5356 24.1947 53.7963 20.4615 50.8779C15.3109 46.8513 12 40.5801 12 33.5356C12 21.3854 21.8497 11.5356 34 11.5356C39.5948 11.5356 44.7018 13.6241 48.5839 17.0638C53.1328 21.0943 56 26.9801 56 33.5356Z"/>
</mask>
<path d="M56 33.5356C56 45.6859 46.1503 55.5356 34 55.5356C28.8942 55.5356 24.1947 53.7963 20.4615 50.8779C15.3109 46.8513 12 40.5801 12 33.5356C12 21.3854 21.8497 11.5356 34 11.5356C39.5948 11.5356 44.7018 13.6241 48.5839 17.0638C53.1328 21.0943 56 26.9801 56 33.5356Z" fill="#43C6FE"/>
<path d="M21.2304 51.5173L49.3528 17.7033L47.8151 16.4244L19.6927 50.2384L21.2304 51.5173ZM20.4615 50.8779L21.6933 49.3022L20.4615 50.8779ZM48.5839 17.0638L47.2576 18.5608L48.5839 17.0638ZM54 33.5356C54 44.5813 45.0457 53.5356 34 53.5356V57.5356C47.2548 57.5356 58 46.7905 58 33.5356H54ZM14 33.5356C14 22.4899 22.9543 13.5356 34 13.5356V9.53564C20.7452 9.53564 10 20.2808 10 33.5356H14ZM34 53.5356C29.3563 53.5356 25.0872 51.9555 21.6933 49.3022L19.2297 52.4535C23.3021 55.6372 28.4321 57.5356 34 57.5356V53.5356ZM21.6933 49.3022C17.0067 45.6384 14 39.9387 14 33.5356H10C10 41.2216 13.6152 48.0642 19.2297 52.4535L21.6933 49.3022ZM34 13.5356C39.0875 13.5356 43.7271 15.4326 47.2576 18.5608L49.9103 15.5669C45.6764 11.8155 40.102 9.53564 34 9.53564V13.5356ZM47.2576 18.5608C51.3962 22.2278 54 27.5764 54 33.5356H58C58 26.3839 54.8694 19.9609 49.9103 15.5669L47.2576 18.5608Z" fill="white" mask="url(#path-4-inside-2)"/>
<mask id="path-6-inside-3" fill="white">
<path d="M298 437.536C298 449.686 288.15 459.536 276 459.536C270.894 459.536 266.195 457.796 262.462 454.878C257.311 450.851 254 444.58 254 437.536C254 425.385 263.85 415.536 276 415.536C281.595 415.536 286.702 417.624 290.584 421.064C295.133 425.094 298 430.98 298 437.536Z"/>
</mask>
<path d="M298 437.536C298 449.686 288.15 459.536 276 459.536C270.894 459.536 266.195 457.796 262.462 454.878C257.311 450.851 254 444.58 254 437.536C254 425.385 263.85 415.536 276 415.536C281.595 415.536 286.702 417.624 290.584 421.064C295.133 425.094 298 430.98 298 437.536Z" fill="#43C6FE"/>
<path d="M263.23 455.517L291.353 421.703L289.815 420.424L261.693 454.238L263.23 455.517ZM262.462 454.878L263.693 453.302L262.462 454.878ZM290.584 421.064L289.258 422.561L290.584 421.064ZM296 437.536C296 448.581 287.046 457.536 276 457.536V461.536C289.255 461.536 300 450.79 300 437.536H296ZM256 437.536C256 426.49 264.954 417.536 276 417.536V413.536C262.745 413.536 252 424.281 252 437.536H256ZM276 457.536C271.356 457.536 267.087 455.955 263.693 453.302L261.23 456.454C265.302 459.637 270.432 461.536 276 461.536V457.536ZM263.693 453.302C259.007 449.638 256 443.939 256 437.536H252C252 445.222 255.615 452.064 261.23 456.454L263.693 453.302ZM276 417.536C281.087 417.536 285.727 419.433 289.258 422.561L291.91 419.567C287.676 415.816 282.102 413.536 276 413.536V417.536ZM289.258 422.561C293.396 426.228 296 431.576 296 437.536H300C300 430.384 296.869 423.961 291.91 419.567L289.258 422.561Z" fill="white" mask="url(#path-6-inside-3)"/>
</svg>
