<svg width="310" height="473" viewBox="0 0 310 473" fill="none" xmlns="http://www.w3.org/2000/svg">
<rect x="0.80957" y="0.786133" width="309" height="471.418" rx="30" fill="#43C6FE"/>
<mask id="path-2-inside-1" fill="white">
<path d="M248.81 236.352C248.81 287.991 206.948 329.852 155.31 329.852C133.61 329.852 113.637 322.46 97.7711 310.057C75.881 292.944 61.8096 266.291 61.8096 236.352C61.8096 184.713 103.671 142.852 155.31 142.852C179.087 142.852 200.792 151.728 217.291 166.347C236.624 183.476 248.81 208.491 248.81 236.352Z"/>
</mask>
<path d="M248.81 236.352C248.81 287.991 206.948 329.852 155.31 329.852C133.61 329.852 113.637 322.46 97.7711 310.057C75.881 292.944 61.8096 266.291 61.8096 236.352C61.8096 184.713 103.671 142.852 155.31 142.852C179.087 142.852 200.792 151.728 217.291 166.347C236.624 183.476 248.81 208.491 248.81 236.352Z" fill="#43C6FE"/>
<path d="M99.6932 311.655L219.213 167.946L215.369 164.748L95.849 308.458L99.6932 311.655ZM97.7711 310.057L100.851 306.117L100.851 306.117L97.7711 310.057ZM217.291 166.347L213.975 170.089L213.975 170.089L217.291 166.347ZM243.81 236.352C243.81 285.229 204.187 324.852 155.31 324.852V334.852C209.71 334.852 253.81 290.752 253.81 236.352H243.81ZM66.8096 236.352C66.8096 187.475 106.432 147.852 155.31 147.852V137.852C100.91 137.852 56.8096 181.952 56.8096 236.352H66.8096ZM155.31 324.852C134.765 324.852 115.868 317.858 100.851 306.117L94.6916 313.996C111.405 327.062 132.455 334.852 155.31 334.852V324.852ZM100.851 306.117C80.1205 289.911 66.8096 264.687 66.8096 236.352H56.8096C56.8096 267.895 71.6416 295.976 94.6916 313.996L100.851 306.117ZM155.31 147.852C177.819 147.852 198.355 156.249 213.975 170.089L220.607 162.605C203.229 147.206 180.355 137.852 155.31 137.852V147.852ZM213.975 170.089C232.282 186.31 243.81 209.982 243.81 236.352H253.81C253.81 207.001 240.965 180.643 220.607 162.605L213.975 170.089Z" fill="white" mask="url(#path-2-inside-1)"/>
<mask id="path-4-inside-2" fill="white">
<path d="M65.0214 37.6665C65.0214 52.0844 53.3334 63.7724 38.9155 63.7724C32.8568 63.7724 27.2802 61.7085 22.8503 58.2454C16.7384 53.4673 12.8096 46.0257 12.8096 37.6665C12.8096 23.2486 24.4976 11.5605 38.9155 11.5605C45.5544 11.5605 51.6146 14.0387 56.2213 18.1205C61.6191 22.9032 65.0214 29.8875 65.0214 37.6665Z"/>
</mask>
<path d="M65.0214 37.6665C65.0214 52.0844 53.3334 63.7724 38.9155 63.7724C32.8568 63.7724 27.2802 61.7085 22.8503 58.2454C16.7384 53.4673 12.8096 46.0257 12.8096 37.6665C12.8096 23.2486 24.4976 11.5605 38.9155 11.5605C45.5544 11.5605 51.6146 14.0387 56.2213 18.1205C61.6191 22.9032 65.0214 29.8875 65.0214 37.6665Z" fill="#43C6FE"/>
<path d="M23.6192 58.8848L56.9901 18.7599L55.4524 17.4811L22.0815 57.6059L23.6192 58.8848ZM22.8503 58.2454L24.0821 56.6697L24.0821 56.6697L22.8503 58.2454ZM56.2213 18.1205L54.8949 19.6174L54.8949 19.6174L56.2213 18.1205ZM63.0214 37.6665C63.0214 50.9798 52.2288 61.7724 38.9155 61.7724V65.7724C54.438 65.7724 67.0214 53.189 67.0214 37.6665H63.0214ZM14.8096 37.6665C14.8096 24.3531 25.6022 13.5605 38.9155 13.5605V9.56055C23.393 9.56055 10.8096 22.144 10.8096 37.6665H14.8096ZM38.9155 61.7724C33.3189 61.7724 28.1727 59.8676 24.0821 56.6697L21.6185 59.821C26.3876 63.5493 32.3947 65.7724 38.9155 65.7724V61.7724ZM24.0821 56.6697C18.4342 52.2543 14.8096 45.3842 14.8096 37.6665H10.8096C10.8096 46.6672 15.0427 54.6802 21.6185 59.821L24.0821 56.6697ZM38.9155 13.5605C45.0472 13.5605 50.6399 15.8473 54.8949 19.6174L57.5476 16.6236C52.5892 12.2302 46.0617 9.56055 38.9155 9.56055V13.5605ZM54.8949 19.6174C59.8825 24.0366 63.0214 30.4837 63.0214 37.6665H67.0214C67.0214 29.2913 63.3557 21.7698 57.5476 16.6236L54.8949 19.6174Z" fill="white" mask="url(#path-4-inside-2)"/>
<mask id="path-6-inside-3" fill="white">
<path d="M295.151 435.037C295.151 449.454 283.463 461.142 269.046 461.142C262.987 461.142 257.411 459.078 252.981 455.615C246.87 450.837 242.941 443.396 242.941 435.037C242.941 420.619 254.629 408.932 269.046 408.932C275.685 408.932 281.745 411.41 286.351 415.491C291.749 420.274 295.151 427.258 295.151 435.037Z"/>
</mask>
<path d="M295.151 435.037C295.151 449.454 283.463 461.142 269.046 461.142C262.987 461.142 257.411 459.078 252.981 455.615C246.87 450.837 242.941 443.396 242.941 435.037C242.941 420.619 254.629 408.932 269.046 408.932C275.685 408.932 281.745 411.41 286.351 415.491C291.749 420.274 295.151 427.258 295.151 435.037Z" fill="#43C6FE"/>
<path d="M253.75 456.254L287.12 416.131L285.582 414.852L252.212 454.975L253.75 456.254ZM252.981 455.615L254.213 454.039L254.213 454.039L252.981 455.615ZM286.351 415.491L285.025 416.988L285.025 416.988L286.351 415.491ZM293.151 435.037C293.151 448.349 282.359 459.142 269.046 459.142V463.142C284.568 463.142 297.151 450.559 297.151 435.037H293.151ZM244.941 435.037C244.941 421.724 255.733 410.932 269.046 410.932V406.932C253.524 406.932 240.941 419.515 240.941 435.037H244.941ZM269.046 459.142C263.45 459.142 258.304 457.237 254.213 454.039L251.75 457.19C256.518 460.919 262.525 463.142 269.046 463.142V459.142ZM254.213 454.039C248.565 449.624 244.941 442.754 244.941 435.037H240.941C240.941 444.037 245.174 452.05 251.75 457.19L254.213 454.039ZM269.046 410.932C275.177 410.932 280.77 413.218 285.025 416.988L287.677 413.994C282.719 409.601 276.192 406.932 269.046 406.932V410.932ZM285.025 416.988C290.012 421.407 293.151 427.854 293.151 435.037H297.151C297.151 426.662 293.485 419.14 287.677 413.994L285.025 416.988Z" fill="white" mask="url(#path-6-inside-3)"/>
</svg>
