<svg width="410" height="231" viewBox="0 0 410 231" fill="none" xmlns="http://www.w3.org/2000/svg">
<g filter="url(#filter0_d)">
<path d="M35.7748 219.744L21.785 190.112C20.3755 187.126 22.195 183.619 25.4472 183.052L217.501 149.553C218.33 149.409 219.11 149.057 219.767 148.531L381.839 18.7453C384.323 16.756 388.009 17.5631 389.435 20.4086L402.272 46.0327C403.206 47.8977 402.884 50.1468 401.465 51.6752L244.166 221.012C243.22 222.03 241.893 222.609 240.503 222.609H40.2962C38.3616 222.609 36.6007 221.493 35.7748 219.744Z" fill="white"/>
<path d="M204.024 16.3657C202.762 16.3657 201.547 16.843 200.622 17.7017L22.3832 183.2C19.053 186.292 21.241 191.864 25.7854 191.864L223.933 191.864C225.286 191.864 226.581 191.315 227.523 190.343L387.902 24.8451C390.976 21.6733 388.728 16.3656 384.311 16.3656L204.024 16.3657Z" fill="#2F2E2E"/>
<mask id="mask0" mask-type="alpha" maskUnits="userSpaceOnUse" x="8" y="1" width="395" height="208">
<path d="M204.024 16.3657C202.762 16.3657 201.547 16.843 200.622 17.7017L22.3832 183.2C19.053 186.292 21.241 191.864 25.7854 191.864L223.933 191.864C225.286 191.864 226.581 191.315 227.523 190.343L387.902 24.8451C390.976 21.6733 388.728 16.3656 384.311 16.3656L204.024 16.3657Z" fill="#2F2E2E"/>
</mask>
<g mask="url(#mask0)">
</g>
<mask id="mask1" mask-type="alpha" maskUnits="userSpaceOnUse" x="8" y="1" width="395" height="208">
<mask id="path-4-inside-1" mask-type="luminance" fill="white">
<path d="M204.024 16.3657C202.762 16.3657 201.547 16.843 200.622 17.7017L22.3832 183.2C19.053 186.292 21.241 191.864 25.7854 191.864L223.933 191.864C225.286 191.864 226.581 191.315 227.523 190.343L387.902 24.8451C390.976 21.6733 388.728 16.3656 384.311 16.3656L204.024 16.3657Z"/>
</mask>
<path d="M204.024 16.3657C202.762 16.3657 201.547 16.843 200.622 17.7017L22.3832 183.2C19.053 186.292 21.241 191.864 25.7854 191.864L223.933 191.864C225.286 191.864 226.581 191.315 227.523 190.343L387.902 24.8451C390.976 21.6733 388.728 16.3656 384.311 16.3656L204.024 16.3657Z" fill="#2F2E2E" stroke="black" stroke-width="2" mask="url(#path-4-inside-1)"/>
</mask>
<g mask="url(#mask1)">
<mask id="path-5-inside-2" fill="white">
<path d="M229.61 150.297C138.278 180.706 56.894 183.3 47.8345 156.09C38.7749 128.88 105.47 82.1708 196.803 51.7614C288.135 21.352 369.519 18.7582 378.579 45.968C387.638 73.1777 320.943 119.887 229.61 150.297Z"/>
</mask>
<path d="M229.61 150.297C138.278 180.706 56.894 183.3 47.8345 156.09C38.7749 128.88 105.47 82.1708 196.803 51.7614C288.135 21.352 369.519 18.7582 378.579 45.968C387.638 73.1777 320.943 119.887 229.61 150.297Z" fill="#ED6969" stroke="white" stroke-width="10" mask="url(#path-5-inside-2)"/>
</g>
</g>
<defs>
<filter id="filter0_d" x="6.07764" y="1.26294" width="402.724" height="229.346" filterUnits="userSpaceOnUse" color-interpolation-filters="sRGB">
<feFlood flood-opacity="0" result="BackgroundImageFix"/>
<feColorMatrix in="SourceAlpha" type="matrix" values="0 0 0 0 0 0 0 0 0 0 0 0 0 0 0 0 0 0 127 0"/>
<feOffset dx="2" dy="4"/>
<feGaussianBlur stdDeviation="2"/>
<feColorMatrix type="matrix" values="0 0 0 0 0 0 0 0 0 0 0 0 0 0 0 0 0 0 0.25 0"/>
<feBlend mode="normal" in2="BackgroundImageFix" result="effect1_dropShadow"/>
<feBlend mode="normal" in="SourceGraphic" in2="effect1_dropShadow" result="shape"/>
</filter>
</defs>
</svg>
