<svg width="410" height="231" viewBox="0 0 410 231" fill="none" xmlns="http://www.w3.org/2000/svg">
<g filter="url(#filter0_d)">
<path d="M36.0956 219.806L22.1058 190.174C20.6963 187.188 22.5158 183.681 25.768 183.114L217.821 149.615C218.651 149.471 219.43 149.119 220.088 148.593L382.16 18.8073C384.644 16.818 388.33 17.6251 389.755 20.4706L402.592 46.0947C403.527 47.9597 403.205 50.2088 401.785 51.7372L244.487 221.074C243.541 222.092 242.213 222.671 240.823 222.671H40.617C38.6824 222.671 36.9215 221.555 36.0956 219.806Z" fill="white"/>
<path d="M204.345 16.4277C203.083 16.4277 201.868 16.905 200.943 17.7637L22.704 183.262C19.3738 186.354 21.5618 191.926 26.1062 191.926L224.253 191.926C225.607 191.926 226.902 191.377 227.844 190.405L388.223 24.9071C391.297 21.7353 389.049 16.4276 384.632 16.4276L204.345 16.4277Z" fill="#2F2E2E"/>
<mask id="mask0" mask-type="alpha" maskUnits="userSpaceOnUse" x="8" y="1" width="395" height="208">
<path d="M204.345 16.4277C203.083 16.4277 201.868 16.905 200.943 17.7637L22.704 183.262C19.3738 186.354 21.5618 191.926 26.1062 191.926L224.253 191.926C225.607 191.926 226.902 191.377 227.844 190.405L388.223 24.9071C391.297 21.7353 389.049 16.4276 384.632 16.4276L204.345 16.4277Z" fill="#2F2E2E"/>
</mask>
<g mask="url(#mask0)">
</g>
<mask id="mask1" mask-type="alpha" maskUnits="userSpaceOnUse" x="8" y="1" width="395" height="208">
<mask id="path-4-inside-1" mask-type="luminance" fill="white">
<path d="M204.345 16.4277C203.083 16.4277 201.868 16.905 200.943 17.7637L22.704 183.262C19.3738 186.354 21.5618 191.926 26.1062 191.926L224.253 191.926C225.607 191.926 226.902 191.377 227.844 190.405L388.223 24.9071C391.297 21.7353 389.049 16.4276 384.632 16.4276L204.345 16.4277Z"/>
</mask>
<path d="M204.345 16.4277C203.083 16.4277 201.868 16.905 200.943 17.7637L22.704 183.262C19.3738 186.354 21.5618 191.926 26.1062 191.926L224.253 191.926C225.607 191.926 226.902 191.377 227.844 190.405L388.223 24.9071C391.297 21.7353 389.049 16.4276 384.632 16.4276L204.345 16.4277Z" fill="#2F2E2E" stroke="black" stroke-width="2" mask="url(#path-4-inside-1)"/>
</mask>
<g mask="url(#mask1)">
<mask id="path-5-inside-2" fill="white">
<path d="M229.931 150.359C138.599 180.768 57.2148 183.362 48.1553 156.152C39.0957 128.942 105.791 82.2328 197.124 51.8234C288.456 21.414 369.84 18.8202 378.899 46.03C387.959 73.2397 321.264 119.949 229.931 150.359Z"/>
</mask>
<path d="M229.931 150.359C138.599 180.768 57.2148 183.362 48.1553 156.152C39.0957 128.942 105.791 82.2328 197.124 51.8234C288.456 21.414 369.84 18.8202 378.899 46.03C387.959 73.2397 321.264 119.949 229.931 150.359Z" fill="#ED6969" stroke="white" stroke-width="10" mask="url(#path-5-inside-2)"/>
</g>
</g>
<defs>
<filter id="filter0_d" x="6.39844" y="1.32495" width="402.724" height="229.346" filterUnits="userSpaceOnUse" color-interpolation-filters="sRGB">
<feFlood flood-opacity="0" result="BackgroundImageFix"/>
<feColorMatrix in="SourceAlpha" type="matrix" values="0 0 0 0 0 0 0 0 0 0 0 0 0 0 0 0 0 0 127 0"/>
<feOffset dx="2" dy="4"/>
<feGaussianBlur stdDeviation="2"/>
<feColorMatrix type="matrix" values="0 0 0 0 0 0 0 0 0 0 0 0 0 0 0 0 0 0 0.25 0"/>
<feBlend mode="normal" in2="BackgroundImageFix" result="effect1_dropShadow"/>
<feBlend mode="normal" in="SourceGraphic" in2="effect1_dropShadow" result="shape"/>
</filter>
</defs>
</svg>
