<svg width="309" height="472" viewBox="0 0 309 472" fill="none" xmlns="http://www.w3.org/2000/svg">
<rect width="309" height="471.42" rx="30" fill="#34D27D"/>
<path d="M26.0312 34.9375H29.8438C33.4062 34.875 36.2812 33.9271 38.4688 32.0938C40.6771 30.2604 41.7812 27.9271 41.7812 25.0938C41.7812 21.8646 40.7917 19.3021 38.8125 17.4062C36.8542 15.5104 34.125 14.5625 30.625 14.5625C27.2083 14.5625 24.3958 15.5625 22.1875 17.5625C19.9792 19.5625 18.875 22.1875 18.875 25.4375H17.1875C17.1875 23.0208 17.7708 20.8542 18.9375 18.9375C20.1042 17.0208 21.7188 15.5312 23.7812 14.4688C25.8438 13.4062 28.125 12.875 30.625 12.875C34.5625 12.875 37.6875 13.9896 40 16.2188C42.3125 18.4271 43.4688 21.4271 43.4688 25.2188C43.4688 27.6354 42.6979 29.7917 41.1562 31.6875C39.6354 33.5833 37.5729 34.9271 34.9688 35.7188C37.9479 36.4062 40.2708 37.6979 41.9375 39.5938C43.625 41.4896 44.4688 43.9375 44.4688 46.9375C44.4688 50.8125 43.2292 53.8958 40.75 56.1875C38.2708 58.4792 34.9896 59.625 30.9062 59.625C28.1562 59.625 25.6146 59.0312 23.2812 57.8438C20.9479 56.6562 19.1875 55.0833 18 53.125C16.8125 51.1667 16.2188 48.9062 16.2188 46.3438H17.9062C17.9062 49.6771 19.1354 52.4479 21.5938 54.6562C24.0521 56.8438 27.1562 57.9375 30.9062 57.9375C34.6354 57.9375 37.5417 56.9792 39.625 55.0625C41.7292 53.125 42.7812 50.4583 42.7812 47.0625C42.7812 43.7083 41.6562 41.1458 39.4062 39.375C37.1771 37.6042 33.9062 36.7083 29.5938 36.6875H26.0312V34.9375Z" fill="white"/>
<path d="M144.32 230.351H152.898C160.914 230.211 167.383 228.078 172.305 223.953C177.273 219.828 179.758 214.578 179.758 208.203C179.758 200.937 177.531 195.172 173.078 190.906C168.672 186.64 162.531 184.507 154.656 184.507C146.969 184.507 140.641 186.757 135.672 191.257C130.703 195.757 128.219 201.664 128.219 208.976H124.422C124.422 203.539 125.734 198.664 128.359 194.351C130.984 190.039 134.617 186.687 139.258 184.297C143.898 181.906 149.031 180.711 154.656 180.711C163.516 180.711 170.547 183.218 175.75 188.234C180.953 193.203 183.555 199.953 183.555 208.484C183.555 213.922 181.82 218.773 178.352 223.039C174.93 227.304 170.289 230.328 164.43 232.109C171.133 233.656 176.359 236.562 180.109 240.828C183.906 245.093 185.805 250.601 185.805 257.351C185.805 266.07 183.016 273.007 177.438 278.164C171.859 283.32 164.477 285.898 155.289 285.898C149.102 285.898 143.383 284.562 138.133 281.89C132.883 279.218 128.922 275.679 126.25 271.273C123.578 266.867 122.242 261.781 122.242 256.015H126.039C126.039 263.515 128.805 269.75 134.336 274.718C139.867 279.64 146.852 282.101 155.289 282.101C163.68 282.101 170.219 279.945 174.906 275.632C179.641 271.273 182.008 265.273 182.008 257.632C182.008 250.086 179.477 244.32 174.414 240.336C169.398 236.351 162.039 234.336 152.336 234.289H144.32V230.351Z" fill="white"/>
<path d="M270.031 431.608H273.844C277.406 431.546 280.281 430.598 282.469 428.765C284.677 426.931 285.781 424.598 285.781 421.765C285.781 418.535 284.792 415.973 282.812 414.077C280.854 412.181 278.125 411.233 274.625 411.233C271.208 411.233 268.396 412.233 266.188 414.233C263.979 416.233 262.875 418.858 262.875 422.108H261.188C261.188 419.692 261.771 417.525 262.938 415.608C264.104 413.692 265.719 412.202 267.781 411.14C269.844 410.077 272.125 409.546 274.625 409.546C278.562 409.546 281.688 410.66 284 412.89C286.312 415.098 287.469 418.098 287.469 421.89C287.469 424.306 286.698 426.463 285.156 428.358C283.635 430.254 281.573 431.598 278.969 432.39C281.948 433.077 284.271 434.369 285.938 436.265C287.625 438.16 288.469 440.608 288.469 443.608C288.469 447.483 287.229 450.567 284.75 452.858C282.271 455.15 278.99 456.296 274.906 456.296C272.156 456.296 269.615 455.702 267.281 454.515C264.948 453.327 263.188 451.754 262 449.796C260.812 447.838 260.219 445.577 260.219 443.015H261.906C261.906 446.348 263.135 449.119 265.594 451.327C268.052 453.515 271.156 454.608 274.906 454.608C278.635 454.608 281.542 453.65 283.625 451.733C285.729 449.796 286.781 447.129 286.781 443.733C286.781 440.379 285.656 437.817 283.406 436.046C281.177 434.275 277.906 433.379 273.594 433.358H270.031V431.608Z" fill="white"/>
</svg>
