<svg width="309" height="472" viewBox="0 0 309 472" fill="none" xmlns="http://www.w3.org/2000/svg">
<rect width="309" height="471.422" rx="30" fill="#34D27D"/>
<path d="M181.023 233.587C178.539 238.978 174.672 243.337 169.422 246.666C164.219 249.947 158.336 251.587 151.773 251.587C146.148 251.587 141.086 250.087 136.586 247.087C132.086 244.041 128.57 239.869 126.039 234.572C123.508 229.275 122.242 223.462 122.242 217.134C122.242 210.431 123.531 204.291 126.109 198.712C128.688 193.087 132.297 188.681 136.938 185.494C141.578 182.306 146.711 180.712 152.336 180.712C162.883 180.712 170.922 184.158 176.453 191.048C181.984 197.892 184.773 207.783 184.82 220.72V232.462C184.82 249.759 180.977 262.955 173.289 272.048C165.602 281.095 154.281 285.712 139.328 285.9H135.953L136.094 282.103H139.117C152.805 281.962 163.211 277.791 170.336 269.587C177.461 261.384 181.023 249.384 181.023 233.587ZM151.773 247.791C158.711 247.791 164.852 245.751 170.195 241.673C175.539 237.595 179.148 232.181 181.023 225.431V221.072C181.023 209.212 178.562 200.166 173.641 193.931C168.766 187.65 161.758 184.509 152.617 184.509C147.602 184.509 143.055 185.986 138.977 188.939C134.898 191.892 131.711 195.923 129.414 201.033C127.164 206.095 126.039 211.462 126.039 217.134C126.039 222.712 127.141 227.892 129.344 232.673C131.547 237.408 134.594 241.111 138.484 243.783C142.375 246.455 146.805 247.791 151.773 247.791Z" fill="white"/>
<line x1="128" y1="298" x2="180" y2="298" stroke="white" stroke-width="2"/>
<path d="M42.3433 36.375C41.2391 38.7708 39.5203 40.7083 37.187 42.1875C34.8745 43.6458 32.2599 44.375 29.3433 44.375C26.8433 44.375 24.5933 43.7083 22.5933 42.375C20.5933 41.0208 19.0308 39.1667 17.9058 36.8125C16.7808 34.4583 16.2183 31.875 16.2183 29.0625C16.2183 26.0833 16.7912 23.3542 17.937 20.875C19.0828 18.375 20.687 16.4167 22.7495 15C24.812 13.5833 27.0933 12.875 29.5933 12.875C34.2808 12.875 37.8537 14.4062 40.312 17.4688C42.7703 20.5104 44.0099 24.9062 44.0308 30.6562V35.875C44.0308 43.5625 42.3224 49.4271 38.9058 53.4688C35.4891 57.4896 30.4578 59.5417 23.812 59.625H22.312L22.3745 57.9375H23.7183C29.8016 57.875 34.4266 56.0208 37.5933 52.375C40.7599 48.7292 42.3433 43.3958 42.3433 36.375ZM29.3433 42.6875C32.4266 42.6875 35.1558 41.7812 37.5308 39.9688C39.9058 38.1562 41.5099 35.75 42.3433 32.75V30.8125C42.3433 25.5417 41.2495 21.5208 39.062 18.75C36.8953 15.9583 33.7808 14.5625 29.7183 14.5625C27.4891 14.5625 25.4683 15.2188 23.6558 16.5312C21.8433 17.8438 20.4266 19.6354 19.4058 21.9062C18.4058 24.1562 17.9058 26.5417 17.9058 29.0625C17.9058 31.5417 18.3953 33.8438 19.3745 35.9688C20.3537 38.0729 21.7078 39.7188 23.437 40.9062C25.1662 42.0938 27.1349 42.6875 29.3433 42.6875Z" fill="white"/>
<line x1="17" y1="65.375" x2="42" y2="65.375" stroke="white" stroke-width="1.25"/>
<path d="M286.344 419.375C285.24 421.771 283.521 423.708 281.188 425.188C278.875 426.646 276.26 427.375 273.344 427.375C270.844 427.375 268.594 426.708 266.594 425.375C264.594 424.021 263.031 422.167 261.906 419.812C260.781 417.458 260.219 414.875 260.219 412.062C260.219 409.083 260.792 406.354 261.938 403.875C263.083 401.375 264.688 399.417 266.75 398C268.812 396.583 271.094 395.875 273.594 395.875C278.281 395.875 281.854 397.406 284.312 400.469C286.771 403.51 288.01 407.906 288.031 413.656V418.875C288.031 426.562 286.323 432.427 282.906 436.469C279.49 440.49 274.458 442.542 267.812 442.625H266.312L266.375 440.938H267.719C273.802 440.875 278.427 439.021 281.594 435.375C284.76 431.729 286.344 426.396 286.344 419.375ZM273.344 425.688C276.427 425.688 279.156 424.781 281.531 422.969C283.906 421.156 285.51 418.75 286.344 415.75V413.812C286.344 408.542 285.25 404.521 283.062 401.75C280.896 398.958 277.781 397.562 273.719 397.562C271.49 397.562 269.469 398.219 267.656 399.531C265.844 400.844 264.427 402.635 263.406 404.906C262.406 407.156 261.906 409.542 261.906 412.062C261.906 414.542 262.396 416.844 263.375 418.969C264.354 421.073 265.708 422.719 267.438 423.906C269.167 425.094 271.135 425.688 273.344 425.688Z" fill="white"/>
<line x1="261" y1="448.375" x2="286" y2="448.375" stroke="white" stroke-width="1.25"/>
</svg>
