<svg width="309" height="472" viewBox="0 0 309 472" fill="none" xmlns="http://www.w3.org/2000/svg">
<rect y="0.00390625" width="309" height="471.419" rx="30" fill="#34D27D"/>
<path d="M27.7656 35.6313H38.1484V38.2563H27.7656V49.5532H24.9297V38.2563H14.7578V35.6313H24.9297V24.7095H27.7656V35.6313ZM64.6797 52.9751H43.3047V50.8188L55 37.5532C56.9375 35.3188 58.2812 33.4751 59.0312 32.022C59.7812 30.5688 60.1562 29.1548 60.1562 27.7798C60.1562 25.6235 59.5234 23.9204 58.2578 22.6704C56.9922 21.4048 55.25 20.772 53.0312 20.772C50.7344 20.772 48.875 21.5063 47.4531 22.9751C46.0469 24.4438 45.3438 26.3501 45.3438 28.6938H42.5547C42.5547 26.772 42.9844 25.022 43.8438 23.4438C44.7188 21.8657 45.9531 20.6313 47.5469 19.7407C49.1562 18.8345 50.9844 18.3813 53.0312 18.3813C56.1562 18.3813 58.5938 19.2017 60.3438 20.8423C62.1094 22.4829 62.9922 24.7173 62.9922 27.5454C62.9922 29.1392 62.4922 30.8813 61.4922 32.772C60.5078 34.6626 58.7656 37.022 56.2656 39.8501L46.75 50.6079H64.6797V52.9751Z" fill="white"/>
<path d="M254.766 434.294H265.148V436.919H254.766V448.216H251.93V436.919H241.758V434.294H251.93V423.372H254.766V434.294ZM291.68 451.638H270.305V449.481L282 436.216C283.938 433.981 285.281 432.138 286.031 430.685C286.781 429.231 287.156 427.817 287.156 426.442C287.156 424.286 286.523 422.583 285.258 421.333C283.992 420.067 282.25 419.435 280.031 419.435C277.734 419.435 275.875 420.169 274.453 421.638C273.047 423.106 272.344 425.013 272.344 427.356H269.555C269.555 425.435 269.984 423.685 270.844 422.106C271.719 420.528 272.953 419.294 274.547 418.403C276.156 417.497 277.984 417.044 280.031 417.044C283.156 417.044 285.594 417.864 287.344 419.505C289.109 421.146 289.992 423.38 289.992 426.208C289.992 427.802 289.492 429.544 288.492 431.435C287.508 433.325 285.766 435.685 283.266 438.513L273.75 449.271H291.68V451.638Z" fill="white"/>
<rect x="135.5" y="105.16" width="108.017" height="167.422" rx="27.5" stroke="white" stroke-width="5"/>
<rect x="69.5" y="198.848" width="108.017" height="167.421" rx="27.5" fill="#34D27D" stroke="white" stroke-width="5"/>
</svg>
