<svg width="310" height="473" viewBox="0 0 310 473" fill="none" xmlns="http://www.w3.org/2000/svg">
<rect x="0.516602" y="0.64502" width="309" height="471.419" rx="30" fill="#34D27D"/>
<path d="M43.8573 16.3899L42.5729 33.2647C42.5117 34.0697 41.571 34.474 40.9447 33.9645L25.9687 21.781C25.3424 21.2715 25.5469 20.2682 26.3226 20.0444L42.583 15.3532C43.253 15.1599 43.9102 15.6945 43.8573 16.3899Z" fill="#34D27D" stroke="white" stroke-width="2"/>
<path d="M33.3306 27.5007C33.3306 27.5007 24.185 38.1782 22.9013 40.3205C21.6176 42.4628 20.3336 47.1334 26.7093 49.2225" stroke="white" stroke-width="2"/>
<path d="M13.8039 67.57L15.0882 50.6953C15.1495 49.8903 16.0902 49.4859 16.7164 49.9954L31.6925 62.179C32.3187 62.6885 32.1143 63.6917 31.3386 63.9155L15.0782 68.6067C14.4081 68.8001 13.7509 68.2654 13.8039 67.57Z" fill="#34D27D" stroke="white" stroke-width="2"/>
<path d="M24.3305 56.4593C24.3305 56.4593 33.4762 45.7818 34.7599 43.6395C36.0436 41.4972 37.3275 36.8266 30.9519 34.7374" stroke="white" stroke-width="2"/>
<path d="M229.552 128.495L223.573 207.055C223.113 213.092 216.058 216.124 211.361 212.303L141.641 155.583C136.944 151.762 138.478 144.238 144.295 142.559L219.995 120.72C225.02 119.27 229.949 123.28 229.552 128.495Z" fill="#34D27D" stroke="white" stroke-width="5"/>
<path d="M176.458 181.492C176.458 181.492 133.547 231.555 127.544 241.616C121.541 251.678 115.615 273.661 145.824 283.709" stroke="white" stroke-width="5"/>
<path d="M82.4808 370.005L88.46 291.445C88.9195 285.408 95.9746 282.376 100.671 286.197L170.392 342.917C175.088 346.738 173.555 354.262 167.738 355.941L92.0382 377.78C87.0127 379.23 82.0839 375.22 82.4808 370.005Z" fill="#34D27D" stroke="white" stroke-width="5"/>
<path d="M135.528 316.544C135.528 316.544 178.282 266.629 184.283 256.614C190.284 246.6 196.286 224.766 166.482 215" stroke="white" stroke-width="5"/>
<path d="M291.857 408.39L290.573 425.265C290.512 426.07 289.571 426.474 288.945 425.965L273.969 413.781C273.342 413.271 273.547 412.268 274.323 412.044L290.583 407.353C291.253 407.16 291.91 407.695 291.857 408.39Z" fill="#34D27D" stroke="white" stroke-width="2"/>
<path d="M281.331 419.501C281.331 419.501 272.185 430.178 270.901 432.32C269.618 434.463 268.334 439.133 274.709 441.223" stroke="white" stroke-width="2"/>
<path d="M261.804 459.57L263.088 442.695C263.149 441.89 264.09 441.486 264.716 441.995L279.692 454.179C280.319 454.688 280.114 455.692 279.339 455.916L263.078 460.607C262.408 460.8 261.751 460.265 261.804 459.57Z" fill="#34D27D" stroke="white" stroke-width="2"/>
<path d="M272.33 448.459C272.33 448.459 281.476 437.782 282.76 435.639C284.044 433.497 285.327 428.827 278.952 426.737" stroke="white" stroke-width="2"/>
</svg>
