<svg width="310" height="473" viewBox="0 0 310 473" fill="none" xmlns="http://www.w3.org/2000/svg">
<rect x="0.222168" y="0.64502" width="309" height="471.419" rx="30" fill="#34D27D"/>
<path d="M43.5628 16.3899L42.2785 33.2647C42.2172 34.0697 41.2765 34.474 40.6503 33.9645L25.6742 21.781C25.048 21.2715 25.2524 20.2682 26.0281 20.0444L42.2885 15.3532C42.9586 15.1599 43.6158 15.6945 43.5628 16.3899Z" fill="#34D27D" stroke="white" stroke-width="2"/>
<path d="M33.0362 27.5007C33.0362 27.5007 23.8905 38.1782 22.6068 40.3205C21.3231 42.4628 20.0392 47.1334 26.4148 49.2225" stroke="white" stroke-width="2"/>
<path d="M13.5094 67.57L14.7938 50.6953C14.855 49.8903 15.7957 49.4859 16.422 49.9954L31.398 62.179C32.0243 62.6885 31.8198 63.6917 31.0441 63.9155L14.7837 68.6067C14.1137 68.8001 13.4565 68.2654 13.5094 67.57Z" fill="#34D27D" stroke="white" stroke-width="2"/>
<path d="M24.0361 56.4593C24.0361 56.4593 33.1817 45.7818 34.4654 43.6395C35.7491 41.4972 37.0331 36.8266 30.6574 34.7374" stroke="white" stroke-width="2"/>
<path d="M228.258 115.599L222.279 194.159C221.819 200.196 214.764 203.229 210.067 199.408L140.347 142.688C135.65 138.867 137.184 131.342 143.001 129.664L218.701 107.824C223.726 106.374 228.655 110.384 228.258 115.599Z" fill="#34D27D" stroke="white" stroke-width="5"/>
<path d="M175.164 168.596C175.164 168.596 132.254 218.659 126.25 228.721C120.247 238.782 114.322 260.765 144.53 270.813" stroke="white" stroke-width="5"/>
<path d="M81.1869 357.11L87.1661 278.55C87.6256 272.513 94.6806 269.48 99.3775 273.301L169.098 330.021C173.795 333.842 172.261 341.367 166.444 343.045L90.7442 364.885C85.7188 366.335 80.7899 362.325 81.1869 357.11Z" fill="#34D27D" stroke="white" stroke-width="5"/>
<path d="M134.234 303.648C134.234 303.648 176.988 253.734 182.989 243.719C188.99 233.704 194.992 211.87 165.188 202.104" stroke="white" stroke-width="5"/>
<path d="M291.563 408.39L290.278 425.265C290.217 426.07 289.277 426.474 288.65 425.965L273.674 413.781C273.048 413.271 273.252 412.268 274.028 412.044L290.289 407.353C290.959 407.16 291.616 407.695 291.563 408.39Z" fill="#34D27D" stroke="white" stroke-width="2"/>
<path d="M281.036 419.501C281.036 419.501 271.891 430.178 270.607 432.32C269.323 434.463 268.039 439.133 274.415 441.223" stroke="white" stroke-width="2"/>
<path d="M261.509 459.57L262.794 442.695C262.855 441.89 263.796 441.486 264.422 441.995L279.398 454.179C280.024 454.688 279.82 455.692 279.044 455.916L262.784 460.607C262.114 460.8 261.457 460.265 261.509 459.57Z" fill="#34D27D" stroke="white" stroke-width="2"/>
<path d="M272.036 448.459C272.036 448.459 281.182 437.782 282.465 435.639C283.749 433.497 285.033 428.827 278.657 426.737" stroke="white" stroke-width="2"/>
</svg>
