<svg width="310" height="472" viewBox="0 0 310 472" fill="none" xmlns="http://www.w3.org/2000/svg">
<rect x="0.03125" y="0.560547" width="309" height="471.418" rx="30" fill="#34D27D"/>
<mask id="path-2-inside-1" fill="white">
<path d="M248.031 236.126C248.031 287.765 206.17 329.626 154.531 329.626C132.832 329.626 112.859 322.234 96.9928 309.831C75.1027 292.718 61.0312 266.065 61.0312 236.126C61.0312 184.488 102.893 142.626 154.531 142.626C178.309 142.626 200.014 151.502 216.513 166.121C235.845 183.251 248.031 208.266 248.031 236.126Z"/>
</mask>
<path d="M248.031 236.126C248.031 287.765 206.17 329.626 154.531 329.626C132.832 329.626 112.859 322.234 96.9928 309.831C75.1027 292.718 61.0312 266.065 61.0312 236.126C61.0312 184.488 102.893 142.626 154.531 142.626C178.309 142.626 200.014 151.502 216.513 166.121C235.845 183.251 248.031 208.266 248.031 236.126Z" fill="#34D27D"/>
<path d="M98.9149 311.43L218.435 167.72L214.591 164.523L95.0707 308.232L98.9149 311.43ZM96.9928 309.831L100.072 305.892L100.072 305.892L96.9928 309.831ZM216.513 166.121L213.197 169.864L213.197 169.864L216.513 166.121ZM243.031 236.126C243.031 285.004 203.408 324.626 154.531 324.626V334.626C208.931 334.626 253.031 290.527 253.031 236.126H243.031ZM66.0312 236.126C66.0312 187.249 105.654 147.626 154.531 147.626V137.626C100.131 137.626 56.0312 181.726 56.0312 236.126H66.0312ZM154.531 324.626C133.987 324.626 115.09 317.632 100.072 305.892L93.9133 313.77C110.627 326.836 131.676 334.626 154.531 334.626V324.626ZM100.072 305.892C79.3422 289.686 66.0312 264.462 66.0312 236.126H56.0312C56.0312 267.669 70.8633 295.75 93.9133 313.77L100.072 305.892ZM154.531 147.626C177.041 147.626 197.577 156.024 213.197 169.864L219.829 162.379C202.45 146.981 179.577 137.626 154.531 137.626V147.626ZM213.197 169.864C231.504 186.084 243.031 209.756 243.031 236.126H253.031C253.031 206.775 240.187 180.417 219.829 162.379L213.197 169.864Z" fill="white" mask="url(#path-2-inside-1)"/>
<mask id="path-4-inside-2" fill="white">
<path d="M64.2431 37.4409C64.2431 51.8588 52.5551 63.5468 38.1372 63.5468C32.0785 63.5468 26.5018 61.4829 22.072 58.0198C15.9601 53.2417 12.0312 45.8001 12.0312 37.4409C12.0312 23.023 23.7193 11.335 38.1372 11.335C44.7761 11.335 50.8362 13.8131 55.443 17.8949C60.8407 22.6776 64.2431 29.6619 64.2431 37.4409Z"/>
</mask>
<path d="M64.2431 37.4409C64.2431 51.8588 52.5551 63.5468 38.1372 63.5468C32.0785 63.5468 26.5018 61.4829 22.072 58.0198C15.9601 53.2417 12.0312 45.8001 12.0312 37.4409C12.0312 23.023 23.7193 11.335 38.1372 11.335C44.7761 11.335 50.8362 13.8131 55.443 17.8949C60.8407 22.6776 64.2431 29.6619 64.2431 37.4409Z" fill="#34D27D"/>
<path d="M22.8408 58.6592L56.2118 18.5343L54.6741 17.2555L21.3031 57.3803L22.8408 58.6592ZM22.072 58.0198L23.3038 56.4441L23.3038 56.4441L22.072 58.0198ZM55.443 17.8949L54.1166 19.3918L54.1166 19.3918L55.443 17.8949ZM62.2431 37.4409C62.2431 50.7542 51.4505 61.5468 38.1372 61.5468V65.5468C53.6597 65.5468 66.2431 52.9634 66.2431 37.4409H62.2431ZM14.0312 37.4409C14.0312 24.1276 24.8238 13.335 38.1372 13.335V9.33496C22.6147 9.33496 10.0312 21.9184 10.0312 37.4409H14.0312ZM38.1372 61.5468C32.5406 61.5468 27.3944 59.6421 23.3038 56.4441L20.8402 59.5954C25.6093 63.3237 31.6164 65.5468 38.1372 65.5468V61.5468ZM23.3038 56.4441C17.6559 52.0288 14.0312 45.1586 14.0312 37.4409H10.0312C10.0312 46.4416 14.2643 54.4546 20.8402 59.5954L23.3038 56.4441ZM38.1372 13.335C44.2688 13.335 49.8616 15.6217 54.1166 19.3918L56.7693 16.398C51.8109 12.0046 45.2834 9.33496 38.1372 9.33496V13.335ZM54.1166 19.3918C59.1042 23.811 62.2431 30.2581 62.2431 37.4409H66.2431C66.2431 29.0657 62.5773 21.5442 56.7693 16.398L54.1166 19.3918Z" fill="white" mask="url(#path-4-inside-2)"/>
<mask id="path-6-inside-3" fill="white">
<path d="M294.373 434.811C294.373 449.228 282.685 460.916 268.268 460.916C262.209 460.916 256.633 458.852 252.203 455.389C246.091 450.611 242.163 443.17 242.163 434.811C242.163 420.394 253.85 408.706 268.268 408.706C274.906 408.706 280.966 411.184 285.573 415.266C290.97 420.048 294.373 427.032 294.373 434.811Z"/>
</mask>
<path d="M294.373 434.811C294.373 449.228 282.685 460.916 268.268 460.916C262.209 460.916 256.633 458.852 252.203 455.389C246.091 450.611 242.163 443.17 242.163 434.811C242.163 420.394 253.85 408.706 268.268 408.706C274.906 408.706 280.966 411.184 285.573 415.266C290.97 420.048 294.373 427.032 294.373 434.811Z" fill="#34D27D"/>
<path d="M252.972 456.029L286.342 415.905L284.804 414.626L251.434 454.75L252.972 456.029ZM252.203 455.389L253.435 453.814L253.435 453.814L252.203 455.389ZM285.573 415.266L284.246 416.763L284.246 416.763L285.573 415.266ZM292.373 434.811C292.373 448.124 281.58 458.916 268.268 458.916V462.916C283.79 462.916 296.373 450.333 296.373 434.811H292.373ZM244.163 434.811C244.163 421.498 254.955 410.706 268.268 410.706V406.706C252.746 406.706 240.163 419.289 240.163 434.811H244.163ZM268.268 458.916C262.671 458.916 257.525 457.011 253.435 453.814L250.971 456.965C255.74 460.693 261.747 462.916 268.268 462.916V458.916ZM253.435 453.814C247.787 449.398 244.163 442.529 244.163 434.811H240.163C240.163 443.811 244.396 451.824 250.971 456.965L253.435 453.814ZM268.268 410.706C274.399 410.706 279.992 412.993 284.246 416.763L286.899 413.769C281.941 409.376 275.414 406.706 268.268 406.706V410.706ZM284.246 416.763C289.234 421.182 292.373 427.629 292.373 434.811H296.373C296.373 426.436 292.707 418.915 286.899 413.769L284.246 416.763Z" fill="white" mask="url(#path-6-inside-3)"/>
</svg>
