<svg width="309" height="473" viewBox="0 0 309 473" fill="none" xmlns="http://www.w3.org/2000/svg">
<rect y="0.700684" width="309" height="471.42" rx="30" fill="#ED6969"/>
<path d="M20.2188 35.8872L22.3438 14.1997H44.5312V15.856H23.875L22.0312 34.106C23.1146 33.2101 24.5417 32.481 26.3125 31.9185C28.1042 31.356 29.8542 31.0747 31.5625 31.0747C35.6458 31.0747 38.9062 32.3664 41.3438 34.9497C43.7812 37.533 45 40.9497 45 45.1997C45 50.1372 43.8958 53.8976 41.6875 56.481C39.4792 59.0435 36.3125 60.3247 32.1875 60.3247C28.2917 60.3247 25.1458 59.2101 22.75 56.981C20.3542 54.7518 19 51.6685 18.6875 47.731H20.4062C20.7396 51.2935 21.9062 54.0018 23.9062 55.856C25.9062 57.7101 28.6667 58.6372 32.1875 58.6372C35.9375 58.6372 38.7188 57.5122 40.5312 55.2622C42.3646 52.9914 43.2812 49.658 43.2812 45.2622C43.2812 41.4705 42.2188 38.4393 40.0938 36.1685C37.9896 33.8976 35.1562 32.7622 31.5938 32.7622C29.4062 32.7622 27.5 33.0539 25.875 33.6372C24.25 34.2205 22.7917 35.1372 21.5 36.3872L20.2188 35.8872Z" fill="white"/>
<path d="M131.242 231.615L136.023 182.818H185.945V186.545H139.469L135.32 227.607C137.758 225.592 140.969 223.951 144.953 222.685C148.984 221.42 152.922 220.787 156.766 220.787C165.953 220.787 173.289 223.693 178.773 229.506C184.258 235.318 187 243.006 187 252.568C187 263.677 184.516 272.138 179.547 277.951C174.578 283.717 167.453 286.599 158.172 286.599C149.406 286.599 142.328 284.092 136.938 279.076C131.547 274.06 128.5 267.123 127.797 258.263H131.664C132.414 266.279 135.039 272.373 139.539 276.545C144.039 280.717 150.25 282.802 158.172 282.802C166.609 282.802 172.867 280.271 176.945 275.209C181.07 270.099 183.133 262.599 183.133 252.709C183.133 244.177 180.742 237.357 175.961 232.248C171.227 227.138 164.852 224.584 156.836 224.584C151.914 224.584 147.625 225.24 143.969 226.552C140.312 227.865 137.031 229.927 134.125 232.74L131.242 231.615Z" fill="white"/>
<path d="M264.219 432.559L266.344 410.871H288.531V412.528H267.875L266.031 430.778C267.115 429.882 268.542 429.153 270.312 428.59C272.104 428.028 273.854 427.746 275.562 427.746C279.646 427.746 282.906 429.038 285.344 431.621C287.781 434.205 289 437.621 289 441.871C289 446.809 287.896 450.569 285.688 453.153C283.479 455.715 280.312 456.996 276.188 456.996C272.292 456.996 269.146 455.882 266.75 453.653C264.354 451.423 263 448.34 262.688 444.403H264.406C264.74 447.965 265.906 450.673 267.906 452.528C269.906 454.382 272.667 455.309 276.188 455.309C279.938 455.309 282.719 454.184 284.531 451.934C286.365 449.663 287.281 446.33 287.281 441.934C287.281 438.142 286.219 435.111 284.094 432.84C281.99 430.569 279.156 429.434 275.594 429.434C273.406 429.434 271.5 429.726 269.875 430.309C268.25 430.892 266.792 431.809 265.5 433.059L264.219 432.559Z" fill="white"/>
</svg>
