<svg width="310" height="473" viewBox="0 0 310 473" fill="none" xmlns="http://www.w3.org/2000/svg">
<rect x="0.236328" y="0.938477" width="309" height="471.419" rx="30" fill="#ED6969"/>
<path d="M28.002 36.5659H38.3848V39.1909H28.002V50.4878H25.166V39.1909H14.9941V36.5659H25.166V25.644H28.002V36.5659ZM64.916 53.9097H43.541V51.7534L55.2363 38.4878C57.1738 36.2534 58.5176 34.4097 59.2676 32.9565C60.0176 31.5034 60.3926 30.0894 60.3926 28.7144C60.3926 26.5581 59.7598 24.855 58.4941 23.605C57.2285 22.3394 55.4863 21.7065 53.2676 21.7065C50.9707 21.7065 49.1113 22.4409 47.6895 23.9097C46.2832 25.3784 45.5801 27.2847 45.5801 29.6284H42.791C42.791 27.7065 43.2207 25.9565 44.0801 24.3784C44.9551 22.8003 46.1895 21.5659 47.7832 20.6753C49.3926 19.769 51.2207 19.3159 53.2676 19.3159C56.3926 19.3159 58.8301 20.1362 60.5801 21.7769C62.3457 23.4175 63.2285 25.6519 63.2285 28.48C63.2285 30.0737 62.7285 31.8159 61.7285 33.7065C60.7441 35.5972 59.002 37.9565 56.502 40.7847L46.9863 51.5425H64.916V53.9097Z" fill="white"/>
<path d="M255.002 435.229H265.385V437.854H255.002V449.15H252.166V437.854H241.994V435.229H252.166V424.307H255.002V435.229ZM291.916 452.572H270.541V450.416L282.236 437.15C284.174 434.916 285.518 433.072 286.268 431.619C287.018 430.166 287.393 428.752 287.393 427.377C287.393 425.221 286.76 423.518 285.494 422.268C284.229 421.002 282.486 420.369 280.268 420.369C277.971 420.369 276.111 421.104 274.689 422.572C273.283 424.041 272.58 425.947 272.58 428.291H269.791C269.791 426.369 270.221 424.619 271.08 423.041C271.955 421.463 273.189 420.229 274.783 419.338C276.393 418.432 278.221 417.979 280.268 417.979C283.393 417.979 285.83 418.799 287.58 420.439C289.346 422.08 290.229 424.314 290.229 427.143C290.229 428.736 289.729 430.479 288.729 432.369C287.744 434.26 286.002 436.619 283.502 439.447L273.986 450.205H291.916V452.572Z" fill="white"/>
<rect x="135.736" y="106.095" width="108.017" height="167.422" rx="27.5" stroke="white" stroke-width="5"/>
<rect x="69.7363" y="199.782" width="108.017" height="167.421" rx="27.5" fill="#ED6969" stroke="white" stroke-width="5"/>
</svg>
