<svg width="309" height="473" viewBox="0 0 309 473" fill="none" xmlns="http://www.w3.org/2000/svg">
<rect y="0.875488" width="309" height="471.419" rx="30" fill="#ED6969"/>
<path d="M42.0664 15.5837C42.7364 15.3904 43.3936 15.925 43.3407 16.6204L42.0563 33.4952C41.9951 34.3002 41.0544 34.7045 40.4281 34.195L25.4521 22.0114C24.8258 21.502 25.0303 20.4987 25.806 20.2749L42.0664 15.5837Z" fill="#ED6969" stroke="white" stroke-width="2"/>
<path d="M32.814 27.7311C32.814 27.7311 23.6684 38.4086 22.3847 40.5509C21.101 42.6932 19.817 47.3639 26.1927 49.453" stroke="white" stroke-width="2"/>
<path d="M14.5616 68.8372C13.8915 69.0305 13.2343 68.4959 13.2873 67.8005L14.5716 50.9257C14.6329 50.1207 15.5736 49.7164 16.1998 50.2259L31.1759 62.4095C31.8021 62.9189 31.5977 63.9222 30.822 64.146L14.5616 68.8372Z" fill="#ED6969" stroke="white" stroke-width="2"/>
<path d="M23.8139 56.6898C23.8139 56.6898 32.9596 46.0123 34.2433 43.87C35.527 41.7277 36.8109 37.057 30.4353 34.9679" stroke="white" stroke-width="2"/>
<path d="M219.478 120.95C224.503 119.5 229.432 123.51 229.035 128.725L223.056 207.285C222.597 213.322 215.542 216.355 210.845 212.534L141.125 155.814C136.428 151.993 137.961 144.468 143.779 142.79L219.478 120.95Z" fill="#ED6969" stroke="white" stroke-width="5"/>
<path d="M175.941 181.722C175.941 181.722 133.031 231.785 127.028 241.847C121.025 251.908 115.099 273.891 145.308 283.939" stroke="white" stroke-width="5"/>
<path d="M91.5216 378.011C86.4961 379.461 81.5673 375.451 81.9642 370.236L87.9434 291.676C88.4029 285.639 95.458 282.606 100.155 286.427L169.875 343.147C174.572 346.968 173.039 354.493 167.221 356.171L91.5216 378.011Z" fill="#ED6969" stroke="white" stroke-width="5"/>
<path d="M135.012 316.774C135.012 316.774 177.766 266.86 183.766 256.845C189.767 246.83 195.77 224.996 165.965 215.23" stroke="white" stroke-width="5"/>
<path d="M290.066 407.584C290.736 407.39 291.394 407.925 291.341 408.62L290.056 425.495C289.995 426.3 289.054 426.704 288.428 426.195L273.452 414.011C272.826 413.502 273.03 412.499 273.806 412.275L290.066 407.584Z" fill="#ED6969" stroke="white" stroke-width="2"/>
<path d="M280.814 419.731C280.814 419.731 271.668 430.409 270.385 432.551C269.101 434.693 267.817 439.364 274.193 441.453" stroke="white" stroke-width="2"/>
<path d="M262.562 460.837C261.892 461.031 261.234 460.496 261.287 459.801L262.572 442.926C262.633 442.121 263.574 441.716 264.2 442.226L279.176 454.409C279.802 454.919 279.598 455.922 278.822 456.146L262.562 460.837Z" fill="#ED6969" stroke="white" stroke-width="2"/>
<path d="M271.814 448.69C271.814 448.69 280.96 438.012 282.243 435.87C283.527 433.728 284.811 429.057 278.435 426.968" stroke="white" stroke-width="2"/>
</svg>
