<svg width="309" height="473" viewBox="0 0 309 473" fill="none" xmlns="http://www.w3.org/2000/svg">
<rect y="0.613281" width="309" height="471.419" rx="30" fill="#ED6969"/>
<path d="M42.0664 15.3215C42.7364 15.1282 43.3936 15.6628 43.3407 16.3582L42.0563 33.233C41.9951 34.038 41.0544 34.4423 40.4281 33.9328L25.4521 21.7492C24.8258 21.2398 25.0303 20.2365 25.806 20.0127L42.0664 15.3215Z" fill="#ED6969" stroke="white" stroke-width="2"/>
<path d="M32.814 27.4689C32.814 27.4689 23.6684 38.1464 22.3847 40.2887C21.101 42.431 19.817 47.1017 26.1927 49.1908" stroke="white" stroke-width="2"/>
<path d="M14.5616 68.575C13.8915 68.7683 13.2343 68.2337 13.2873 67.5383L14.5716 50.6635C14.6329 49.8585 15.5736 49.4542 16.1998 49.9637L31.1759 62.1473C31.8021 62.6567 31.5977 63.66 30.822 63.8838L14.5616 68.575Z" fill="#ED6969" stroke="white" stroke-width="2"/>
<path d="M23.8139 56.4275C23.8139 56.4275 32.9596 45.7501 34.2433 43.6078C35.527 41.4654 36.8109 36.7948 30.4353 34.7057" stroke="white" stroke-width="2"/>
<path d="M218.478 107.792C223.504 106.343 228.433 110.352 228.036 115.568L222.057 194.127C221.597 200.165 214.542 203.197 209.845 199.376L140.125 142.656C135.428 138.835 136.961 131.31 142.779 129.632L218.478 107.792Z" fill="#ED6969" stroke="white" stroke-width="5"/>
<path d="M174.942 168.564C174.942 168.564 132.031 218.627 126.028 228.689C120.025 238.75 114.099 260.733 144.308 270.781" stroke="white" stroke-width="5"/>
<path d="M90.5221 364.853C85.4966 366.303 80.5678 362.293 80.9647 357.078L86.9439 278.518C87.4034 272.481 94.4585 269.448 99.1553 273.27L168.875 329.989C173.572 333.811 172.039 341.335 166.221 343.013L90.5221 364.853Z" fill="#ED6969" stroke="white" stroke-width="5"/>
<path d="M134.012 303.616C134.012 303.616 176.766 253.702 182.767 243.687C188.768 233.672 194.77 211.838 164.966 202.072" stroke="white" stroke-width="5"/>
<path d="M290.066 407.321C290.736 407.128 291.394 407.663 291.341 408.358L290.056 425.233C289.995 426.038 289.054 426.442 288.428 425.933L273.452 413.749C272.826 413.24 273.03 412.236 273.806 412.013L290.066 407.321Z" fill="#ED6969" stroke="white" stroke-width="2"/>
<path d="M280.814 419.469C280.814 419.469 271.668 430.146 270.385 432.289C269.101 434.431 267.817 439.102 274.193 441.191" stroke="white" stroke-width="2"/>
<path d="M262.562 460.575C261.892 460.768 261.234 460.234 261.287 459.538L262.572 442.664C262.633 441.859 263.574 441.454 264.2 441.964L279.176 454.147C279.802 454.657 279.598 455.66 278.822 455.884L262.562 460.575Z" fill="#ED6969" stroke="white" stroke-width="2"/>
<path d="M271.814 448.428C271.814 448.428 280.96 437.75 282.243 435.608C283.527 433.465 284.811 428.795 278.435 426.706" stroke="white" stroke-width="2"/>
</svg>
