<svg width="309" height="472" viewBox="0 0 309 472" fill="none" xmlns="http://www.w3.org/2000/svg">
<rect y="0.219727" width="309" height="471.419" rx="30" fill="#ED6969"/>
<path d="M42.0664 14.9279C42.7364 14.7346 43.3936 15.2692 43.3407 15.9646L42.0563 32.8394C41.9951 33.6444 41.0544 34.0487 40.4281 33.5392L25.4521 21.3557C24.8258 20.8462 25.0303 19.8429 25.806 19.6191L42.0664 14.9279Z" fill="#ED6969" stroke="white" stroke-width="2"/>
<path d="M32.814 27.0754C32.814 27.0754 23.6684 37.7529 22.3847 39.8952C21.101 42.0375 19.817 46.7081 26.1927 48.7972" stroke="white" stroke-width="2"/>
<path d="M14.5616 68.1815C13.8915 68.3748 13.2343 67.8401 13.2873 67.1448L14.5716 50.27C14.6329 49.465 15.5736 49.0607 16.1998 49.5701L31.1759 61.7537C31.8021 62.2632 31.5977 63.2664 30.822 63.4902L14.5616 68.1815Z" fill="#ED6969" stroke="white" stroke-width="2"/>
<path d="M23.8139 56.034C23.8139 56.034 32.9596 45.3565 34.2433 43.2142C35.527 41.0719 36.8109 36.4013 30.4353 34.3122" stroke="white" stroke-width="2"/>
<path d="M219.478 120.294C224.503 118.844 229.432 122.854 229.035 128.07L223.056 206.629C222.597 212.667 215.542 215.699 210.845 211.878L141.125 155.158C136.428 151.337 137.961 143.812 143.779 142.134L219.478 120.294Z" fill="#ED6969" stroke="white" stroke-width="5"/>
<path d="M175.941 181.066C175.941 181.066 133.031 231.129 127.028 241.191C121.025 251.252 115.099 273.235 145.308 283.283" stroke="white" stroke-width="5"/>
<path d="M91.5216 377.355C86.4961 378.805 81.5673 374.795 81.9642 369.58L87.9434 291.02C88.4029 284.983 95.458 281.95 100.155 285.771L169.875 342.491C174.572 346.312 173.039 353.837 167.221 355.515L91.5216 377.355Z" fill="#ED6969" stroke="white" stroke-width="5"/>
<path d="M135.012 316.118C135.012 316.118 177.766 266.203 183.766 256.189C189.767 246.174 195.77 224.34 165.965 214.574" stroke="white" stroke-width="5"/>
<path d="M290.066 406.928C290.736 406.735 291.394 407.269 291.341 407.965L290.056 424.839C289.995 425.644 289.054 426.049 288.428 425.539L273.452 413.356C272.826 412.846 273.03 411.843 273.806 411.619L290.066 406.928Z" fill="#ED6969" stroke="white" stroke-width="2"/>
<path d="M280.814 419.075C280.814 419.075 271.668 429.753 270.385 431.895C269.101 434.037 267.817 438.708 274.193 440.797" stroke="white" stroke-width="2"/>
<path d="M262.562 460.181C261.892 460.375 261.234 459.84 261.287 459.145L262.572 442.27C262.633 441.465 263.574 441.061 264.2 441.57L279.176 453.754C279.802 454.263 279.598 455.266 278.822 455.49L262.562 460.181Z" fill="#ED6969" stroke="white" stroke-width="2"/>
<path d="M271.814 448.034C271.814 448.034 280.96 437.357 282.243 435.214C283.527 433.072 284.811 428.401 278.435 426.312" stroke="white" stroke-width="2"/>
</svg>
