<svg width="309" height="472" viewBox="0 0 309 472" fill="none" xmlns="http://www.w3.org/2000/svg">
<rect y="0.154785" width="309" height="471.418" rx="30" fill="#ED6969"/>
<mask id="path-2-inside-1" fill="white">
<path d="M248 235.721C248 287.359 206.139 329.221 154.5 329.221C132.8 329.221 112.827 321.829 96.9615 309.425C75.0715 292.312 61 265.66 61 235.721C61 184.082 102.861 142.221 154.5 142.221C178.278 142.221 199.982 151.096 216.482 165.716C235.814 182.845 248 207.86 248 235.721Z"/>
</mask>
<path d="M98.8837 311.024L218.404 167.314L214.56 164.117L95.0394 307.827L98.8837 311.024ZM96.9615 309.425L100.041 305.486L96.9615 309.425ZM216.482 165.716L213.166 169.458L216.482 165.716ZM243 235.721C243 284.598 203.377 324.221 154.5 324.221V334.221C208.9 334.221 253 290.121 253 235.721H243ZM66 235.721C66 186.844 105.623 147.221 154.5 147.221V137.221C100.1 137.221 56 181.321 56 235.721H66ZM154.5 324.221C133.956 324.221 115.059 317.227 100.041 305.486L93.882 313.364C110.596 326.431 131.645 334.221 154.5 334.221V324.221ZM100.041 305.486C79.3109 289.28 66 264.056 66 235.721H56C56 267.263 70.832 295.344 93.882 313.364L100.041 305.486ZM154.5 147.221C177.01 147.221 197.546 155.618 213.166 169.458L219.798 161.973C202.419 146.575 179.546 137.221 154.5 137.221V147.221ZM213.166 169.458C231.473 185.679 243 209.35 243 235.721H253C253 206.369 240.156 180.012 219.798 161.973L213.166 169.458Z" fill="white" mask="url(#path-2-inside-1)"/>
<mask id="path-4-inside-2" fill="white">
<path d="M64.2119 37.0351C64.2119 51.453 52.5238 63.1411 38.1059 63.1411C32.0472 63.1411 26.4706 61.0771 22.0407 57.614C15.9289 52.8359 12 45.3943 12 37.0351C12 22.6172 23.688 10.9292 38.1059 10.9292C44.7449 10.9292 50.805 13.4074 55.4117 17.4892C60.8095 22.2718 64.2119 29.2562 64.2119 37.0351Z"/>
</mask>
<path d="M22.8096 58.2534L56.1806 18.1286L54.6429 16.8497L21.2719 56.9746L22.8096 58.2534ZM22.0407 57.614L23.2725 56.0384L23.2725 56.0384L22.0407 57.614ZM55.4117 17.4892L54.0854 18.9861L54.0854 18.9861L55.4117 17.4892ZM62.2119 37.0351C62.2119 50.3485 51.4193 61.1411 38.1059 61.1411V65.1411C53.6284 65.1411 66.2119 52.5576 66.2119 37.0351H62.2119ZM14 37.0351C14 23.7218 24.7926 12.9292 38.1059 12.9292V8.9292C22.5835 8.9292 10 21.5127 10 37.0351H14ZM38.1059 61.1411C32.5093 61.1411 27.3632 59.2363 23.2725 56.0384L20.8089 59.1897C25.578 62.918 31.5852 65.1411 38.1059 65.1411V61.1411ZM23.2725 56.0384C17.6246 51.623 14 44.7529 14 37.0351H10C10 46.0358 14.2331 54.0488 20.8089 59.1897L23.2725 56.0384ZM38.1059 12.9292C44.2376 12.9292 49.8303 15.2159 54.0854 18.9861L56.7381 15.9922C51.7797 11.5988 45.2521 8.9292 38.1059 8.9292V12.9292ZM54.0854 18.9861C59.0729 23.4053 62.2119 29.8524 62.2119 37.0351H66.2119C66.2119 28.6599 62.5461 21.1384 56.7381 15.9922L54.0854 18.9861Z" fill="white" mask="url(#path-4-inside-2)"/>
<mask id="path-6-inside-3" fill="white">
<path d="M294.341 434.405C294.341 448.823 282.654 460.51 268.236 460.51C262.178 460.51 256.601 458.446 252.172 454.983C246.06 450.206 242.131 442.764 242.131 434.405C242.131 419.988 253.819 408.3 268.236 408.3C274.875 408.3 280.935 410.778 285.542 414.86C290.939 419.643 294.341 426.627 294.341 434.405Z"/>
</mask>
<path d="M252.941 455.623L286.31 415.499L284.773 414.221L251.403 454.344L252.941 455.623ZM252.172 454.983L253.404 453.408L253.404 453.408L252.172 454.983ZM285.542 414.86L284.215 416.357L284.215 416.357L285.542 414.86ZM292.341 434.405C292.341 447.718 281.549 458.51 268.236 458.51V462.51C283.758 462.51 296.341 449.927 296.341 434.405H292.341ZM244.131 434.405C244.131 421.092 254.924 410.3 268.236 410.3V406.3C252.714 406.3 240.131 418.883 240.131 434.405H244.131ZM268.236 458.51C262.64 458.51 257.494 456.606 253.404 453.408L250.94 456.559C255.709 460.287 261.716 462.51 268.236 462.51V458.51ZM253.404 453.408C247.756 448.993 244.131 442.123 244.131 434.405H240.131C240.131 443.406 244.364 451.418 250.94 456.559L253.404 453.408ZM268.236 410.3C274.368 410.3 279.96 412.587 284.215 416.357L286.868 413.363C281.91 408.97 275.382 406.3 268.236 406.3V410.3ZM284.215 416.357C289.203 420.776 292.341 427.223 292.341 434.405H296.341C296.341 426.03 292.676 418.509 286.868 413.363L284.215 416.357Z" fill="white" mask="url(#path-6-inside-3)"/>
</svg>
