<svg width="309" height="472" viewBox="0 0 309 472" fill="none" xmlns="http://www.w3.org/2000/svg">
<rect y="0.498199" width="309" height="471.419" rx="30" fill="#2F2E2E"/>
<circle cx="132.699" cy="180.896" r="38.1612" transform="rotate(24.2452 132.699 180.896)" fill="#ED6969" stroke="white" stroke-width="5"/>
<circle cx="175.323" cy="293.372" r="38.1612" transform="rotate(24.2452 175.323 293.372)" fill="#34D27D" stroke="white" stroke-width="5"/>
<circle cx="97.7726" cy="258.446" r="38.1612" transform="rotate(24.2452 97.7726 258.446)" fill="#EDD869" stroke="white" stroke-width="5"/>
<circle cx="210.25" cy="215.821" r="38.1612" transform="rotate(24.2452 210.25 215.821)" fill="#43C6FE" stroke="white" stroke-width="5"/>
<circle cx="37.9953" cy="26.276" r="10.4582" transform="rotate(24.2452 37.9953 26.276)" fill="#ED6969" stroke="white" stroke-width="2"/>
<circle cx="50.0065" cy="57.9719" r="10.4582" transform="rotate(24.2452 50.0065 57.9719)" fill="#34D27D" stroke="white" stroke-width="2"/>
<circle cx="28.153" cy="48.1297" r="10.4582" transform="rotate(24.2452 28.153 48.1297)" fill="#EDD869" stroke="white" stroke-width="2"/>
<circle cx="59.8488" cy="36.1182" r="10.4582" transform="rotate(24.2452 59.8488 36.1182)" fill="#43C6FE" stroke="white" stroke-width="2"/>
<circle cx="261.995" cy="413.651" r="10.4582" transform="rotate(24.2452 261.995 413.651)" fill="#ED6969" stroke="white" stroke-width="2"/>
<circle cx="274.006" cy="445.347" r="10.4582" transform="rotate(24.2452 274.006 445.347)" fill="#34D27D" stroke="white" stroke-width="2"/>
<circle cx="252.152" cy="435.505" r="10.4582" transform="rotate(24.2452 252.152 435.505)" fill="#EDD869" stroke="white" stroke-width="2"/>
<circle cx="283.848" cy="423.493" r="10.4582" transform="rotate(24.2452 283.848 423.493)" fill="#43C6FE" stroke="white" stroke-width="2"/>
</svg>
