<svg width="309" height="472" viewBox="0 0 309 472" fill="none" xmlns="http://www.w3.org/2000/svg">
<rect width="309" height="471.419" rx="30" fill="#2F2E2E"/>
<circle cx="132.699" cy="180.397" r="38.1612" transform="rotate(24.2452 132.699 180.397)" fill="#ED6969" stroke="white" stroke-width="5"/>
<circle cx="175.323" cy="292.874" r="38.1612" transform="rotate(24.2452 175.323 292.874)" fill="#34D27D" stroke="white" stroke-width="5"/>
<circle cx="97.7726" cy="257.948" r="38.1612" transform="rotate(24.2452 97.7726 257.948)" fill="#F3EE67" stroke="white" stroke-width="5"/>
<circle cx="210.25" cy="215.323" r="38.1612" transform="rotate(24.2452 210.25 215.323)" fill="#43C6FE" stroke="white" stroke-width="5"/>
<circle cx="37.9953" cy="25.7778" r="10.4582" transform="rotate(24.2452 37.9953 25.7778)" fill="#ED6969" stroke="white" stroke-width="2"/>
<circle cx="50.0065" cy="57.4737" r="10.4582" transform="rotate(24.2452 50.0065 57.4737)" fill="#34D27D" stroke="white" stroke-width="2"/>
<circle cx="28.153" cy="47.6315" r="10.4582" transform="rotate(24.2452 28.153 47.6315)" fill="#F3EE67" stroke="white" stroke-width="2"/>
<circle cx="59.8488" cy="35.62" r="10.4582" transform="rotate(24.2452 59.8488 35.62)" fill="#43C6FE" stroke="white" stroke-width="2"/>
<circle cx="261.995" cy="413.153" r="10.4582" transform="rotate(24.2452 261.995 413.153)" fill="#ED6969" stroke="white" stroke-width="2"/>
<circle cx="274.006" cy="444.849" r="10.4582" transform="rotate(24.2452 274.006 444.849)" fill="#34D27D" stroke="white" stroke-width="2"/>
<circle cx="252.152" cy="435.007" r="10.4582" transform="rotate(24.2452 252.152 435.007)" fill="#F3EE67" stroke="white" stroke-width="2"/>
<circle cx="283.848" cy="422.995" r="10.4582" transform="rotate(24.2452 283.848 422.995)" fill="#43C6FE" stroke="white" stroke-width="2"/>
</svg>
