<svg width="309" height="472" viewBox="0 0 309 472" fill="none" xmlns="http://www.w3.org/2000/svg">
<rect y="0.428467" width="309" height="471.42" rx="30" fill="#EDD869"/>
<path d="M45 59.4285H17.7812V57.741L33.3125 39.8347C35.8542 36.8556 37.7396 34.2097 38.9688 31.8972C40.2188 29.5847 40.8438 27.4597 40.8438 25.5222C40.8438 22.1889 39.875 19.6056 37.9375 17.7722C36 15.9181 33.2708 14.991 29.75 14.991C27.625 14.991 25.6875 15.5014 23.9375 16.5222C22.1875 17.5431 20.8125 18.9597 19.8125 20.7722C18.8333 22.5639 18.3438 24.5639 18.3438 26.7722H16.6562C16.6562 24.3347 17.2188 22.0743 18.3438 19.991C19.4688 17.9076 21.0312 16.2722 23.0312 15.0847C25.0312 13.8972 27.2708 13.3035 29.75 13.3035C33.7917 13.3035 36.9375 14.3764 39.1875 16.5222C41.4375 18.6681 42.5625 21.6681 42.5625 25.5222C42.5625 29.0639 40.5729 33.3035 36.5938 38.241L33.75 41.7097L20 57.741H45V59.4285Z" fill="white"/>
<path d="M187 284.92H125.758V281.123L160.703 240.834C166.422 234.131 170.664 228.178 173.43 222.975C176.242 217.772 177.648 212.991 177.648 208.631C177.648 201.131 175.469 195.319 171.109 191.194C166.75 187.022 160.609 184.936 152.688 184.936C147.906 184.936 143.547 186.084 139.609 188.381C135.672 190.678 132.578 193.866 130.328 197.944C128.125 201.975 127.023 206.475 127.023 211.444H123.227C123.227 205.959 124.492 200.873 127.023 196.186C129.555 191.498 133.07 187.819 137.57 185.147C142.07 182.475 147.109 181.139 152.688 181.139C161.781 181.139 168.859 183.553 173.922 188.381C178.984 193.209 181.516 199.959 181.516 208.631C181.516 216.6 177.039 226.139 168.086 237.248L161.688 245.053L130.75 281.123H187V284.92Z" fill="white"/>
<path d="M289 456.098H261.781V454.411L277.312 436.505C279.854 433.525 281.74 430.88 282.969 428.567C284.219 426.255 284.844 424.13 284.844 422.192C284.844 418.859 283.875 416.275 281.938 414.442C280 412.588 277.271 411.661 273.75 411.661C271.625 411.661 269.688 412.171 267.938 413.192C266.188 414.213 264.812 415.63 263.812 417.442C262.833 419.234 262.344 421.234 262.344 423.442H260.656C260.656 421.005 261.219 418.744 262.344 416.661C263.469 414.578 265.031 412.942 267.031 411.755C269.031 410.567 271.271 409.973 273.75 409.973C277.792 409.973 280.938 411.046 283.188 413.192C285.438 415.338 286.562 418.338 286.562 422.192C286.562 425.734 284.573 429.973 280.594 434.911L277.75 438.38L264 454.411H289V456.098Z" fill="white"/>
</svg>
