<svg width="309" height="472" viewBox="0 0 309 472" fill="none" xmlns="http://www.w3.org/2000/svg">
<rect y="0.280518" width="309" height="471.419" rx="30" fill="#EDD869"/>
<path d="M39.3125 45.1868H47.1875V46.8743H39.3125V59.2805H37.625V46.8743H15.5625V45.9368L37.2812 13.7805H39.3125V45.1868ZM18.1875 45.1868H37.625V15.8118L35 20.1243L18.1875 45.1868Z" fill="white"/>
<path d="M174.203 253.061H191.922V256.858H174.203V284.772H170.406V256.858H120.766V254.749L169.633 182.397H174.203V253.061ZM126.672 253.061H170.406V186.967L164.5 196.67L126.672 253.061Z" fill="white"/>
<path d="M283.312 441.856H291.188V443.544H283.312V455.95H281.625V443.544H259.562V442.606L281.281 410.45H283.312V441.856ZM262.188 441.856H281.625V412.481L279 416.794L262.188 441.856Z" fill="white"/>
</svg>
