<svg width="310" height="473" viewBox="0 0 310 473" fill="none" xmlns="http://www.w3.org/2000/svg">
<rect x="0.391602" y="0.971191" width="309" height="471.419" rx="30" fill="#F3EE67"/>
<path d="M28.1572 36.5986H38.54V39.2236H28.1572V50.5205H25.3213V39.2236H15.1494V36.5986H25.3213V25.6768H28.1572V36.5986ZM65.0713 53.9424H43.6963V51.7861L55.3916 38.5205C57.3291 36.2861 58.6729 34.4424 59.4229 32.9893C60.1729 31.5361 60.5479 30.1221 60.5479 28.7471C60.5479 26.5908 59.915 24.8877 58.6494 23.6377C57.3838 22.3721 55.6416 21.7393 53.4229 21.7393C51.126 21.7393 49.2666 22.4736 47.8447 23.9424C46.4385 25.4111 45.7354 27.3174 45.7354 29.6611H42.9463C42.9463 27.7393 43.376 25.9893 44.2354 24.4111C45.1104 22.833 46.3447 21.5986 47.9385 20.708C49.5479 19.8018 51.376 19.3486 53.4229 19.3486C56.5479 19.3486 58.9854 20.1689 60.7354 21.8096C62.501 23.4502 63.3838 25.6846 63.3838 28.5127C63.3838 30.1064 62.8838 31.8486 61.8838 33.7393C60.8994 35.6299 59.1572 37.9893 56.6572 40.8174L47.1416 51.5752H65.0713V53.9424Z" fill="white"/>
<path d="M255.157 435.261H265.54V437.886H255.157V449.183H252.321V437.886H242.149V435.261H252.321V424.339H255.157V435.261ZM292.071 452.605H270.696V450.449L282.392 437.183C284.329 434.949 285.673 433.105 286.423 431.652C287.173 430.199 287.548 428.785 287.548 427.41C287.548 425.253 286.915 423.55 285.649 422.3C284.384 421.035 282.642 420.402 280.423 420.402C278.126 420.402 276.267 421.136 274.845 422.605C273.438 424.074 272.735 425.98 272.735 428.324H269.946C269.946 426.402 270.376 424.652 271.235 423.074C272.11 421.496 273.345 420.261 274.938 419.371C276.548 418.464 278.376 418.011 280.423 418.011C283.548 418.011 285.985 418.832 287.735 420.472C289.501 422.113 290.384 424.347 290.384 427.175C290.384 428.769 289.884 430.511 288.884 432.402C287.899 434.292 286.157 436.652 283.657 439.48L274.142 450.238H292.071V452.605Z" fill="white"/>
<rect x="135.892" y="106.127" width="108.017" height="167.422" rx="27.5" stroke="white" stroke-width="5"/>
<rect x="69.8916" y="199.815" width="108.017" height="167.421" rx="27.5" fill="#F3EE67" stroke="white" stroke-width="5"/>
</svg>
