<svg width="309" height="473" viewBox="0 0 309 473" fill="none" xmlns="http://www.w3.org/2000/svg">
<rect y="0.800293" width="309" height="471.419" rx="30" fill="#EDD869"/>
<path d="M27.7656 36.4277H38.1484V39.0527H27.7656V50.3496H24.9297V39.0527H14.7578V36.4277H24.9297V25.5059H27.7656V36.4277ZM64.6797 53.7715H43.3047V51.6152L55 38.3496C56.9375 36.1152 58.2812 34.2715 59.0312 32.8184C59.7812 31.3652 60.1562 29.9512 60.1562 28.5762C60.1562 26.4199 59.5234 24.7168 58.2578 23.4668C56.9922 22.2012 55.25 21.5684 53.0312 21.5684C50.7344 21.5684 48.875 22.3027 47.4531 23.7715C46.0469 25.2402 45.3438 27.1465 45.3438 29.4902H42.5547C42.5547 27.5684 42.9844 25.8184 43.8438 24.2402C44.7188 22.6621 45.9531 21.4277 47.5469 20.5371C49.1562 19.6309 50.9844 19.1777 53.0312 19.1777C56.1562 19.1777 58.5938 19.998 60.3438 21.6387C62.1094 23.2793 62.9922 25.5137 62.9922 28.3418C62.9922 29.9355 62.4922 31.6777 61.4922 33.5684C60.5078 35.459 58.7656 37.8184 56.2656 40.6465L46.75 51.4043H64.6797V53.7715Z" fill="white"/>
<path d="M254.766 435.09H265.148V437.715H254.766V449.012H251.93V437.715H241.758V435.09H251.93V424.168H254.766V435.09ZM291.68 452.434H270.305V450.278L282 437.012C283.938 434.778 285.281 432.934 286.031 431.481C286.781 430.028 287.156 428.614 287.156 427.239C287.156 425.083 286.523 423.379 285.258 422.129C283.992 420.864 282.25 420.231 280.031 420.231C277.734 420.231 275.875 420.965 274.453 422.434C273.047 423.903 272.344 425.809 272.344 428.153H269.555C269.555 426.231 269.984 424.481 270.844 422.903C271.719 421.325 272.953 420.09 274.547 419.2C276.156 418.293 277.984 417.84 280.031 417.84C283.156 417.84 285.594 418.661 287.344 420.301C289.109 421.942 289.992 424.176 289.992 427.004C289.992 428.598 289.492 430.34 288.492 432.231C287.508 434.122 285.766 436.481 283.266 439.309L273.75 450.067H291.68V452.434Z" fill="white"/>
<rect x="135.5" y="105.957" width="108.017" height="167.422" rx="27.5" stroke="white" stroke-width="5"/>
<rect x="69.5" y="199.644" width="108.017" height="167.421" rx="27.5" fill="#EDD869" stroke="white" stroke-width="5"/>
</svg>
