<svg width="309" height="473" viewBox="0 0 309 473" fill="none" xmlns="http://www.w3.org/2000/svg">
<rect y="0.669922" width="309" height="471.419" rx="30" fill="#F3EE67"/>
<path d="M42.0664 15.3781C42.7364 15.1848 43.3936 15.7194 43.3407 16.4148L42.0563 33.2896C41.9951 34.0946 41.0544 34.4989 40.4281 33.9894L25.4521 21.8059C24.8258 21.2964 25.0303 20.2931 25.806 20.0693L42.0664 15.3781Z" stroke="white" stroke-width="2"/>
<path d="M32.814 27.5256C32.814 27.5256 23.6684 38.2031 22.3847 40.3454C21.101 42.4877 19.817 47.1583 26.1927 49.2474" stroke="white" stroke-width="2"/>
<path d="M14.5616 68.6317C13.8915 68.825 13.2343 68.2903 13.2873 67.5949L14.5716 50.7202C14.6329 49.9152 15.5736 49.5108 16.1998 50.0203L31.1759 62.2039C31.8021 62.7134 31.5977 63.7166 30.822 63.9404L14.5616 68.6317Z" stroke="white" stroke-width="2"/>
<path d="M23.8139 56.4842C23.8139 56.4842 32.9596 45.8067 34.2433 43.6644C35.527 41.5221 36.8109 36.8515 30.4353 34.7623" stroke="white" stroke-width="2"/>
<path d="M219.478 120.745C224.503 119.295 229.432 123.304 229.035 128.52L223.056 207.079C222.597 213.117 215.542 216.149 210.845 212.328L141.125 155.608C136.428 151.787 137.961 144.263 143.779 142.584L219.478 120.745Z" stroke="white" stroke-width="5"/>
<path d="M175.941 181.517C175.941 181.517 133.031 231.579 127.028 241.641C121.025 251.703 115.099 273.686 145.308 283.733" stroke="white" stroke-width="5"/>
<path d="M91.5216 377.805C86.4961 379.255 81.5673 375.245 81.9642 370.03L87.9434 291.47C88.4029 285.433 95.458 282.401 100.155 286.222L169.875 342.942C174.572 346.763 173.039 354.287 167.221 355.966L91.5216 377.805Z" stroke="white" stroke-width="5"/>
<path d="M135.012 316.568C135.012 316.568 177.766 266.654 183.766 256.639C189.767 246.624 195.77 224.79 165.965 215.024" stroke="white" stroke-width="5"/>
<path d="M290.066 407.378C290.736 407.185 291.394 407.719 291.341 408.415L290.056 425.29C289.995 426.095 289.054 426.499 288.428 425.989L273.452 413.806C272.826 413.296 273.03 412.293 273.806 412.069L290.066 407.378Z" stroke="white" stroke-width="2"/>
<path d="M280.814 419.526C280.814 419.526 271.668 430.203 270.385 432.345C269.101 434.488 267.817 439.158 274.193 441.247" stroke="white" stroke-width="2"/>
<path d="M262.562 460.632C261.892 460.825 261.234 460.29 261.287 459.595L262.572 442.72C262.633 441.915 263.574 441.511 264.2 442.02L279.176 454.204C279.802 454.713 279.598 455.717 278.822 455.94L262.562 460.632Z" stroke="white" stroke-width="2"/>
<path d="M271.814 448.484C271.814 448.484 280.96 437.807 282.243 435.664C283.527 433.522 284.811 428.851 278.435 426.762" stroke="white" stroke-width="2"/>
</svg>
