<svg width="309" height="473" viewBox="0 0 309 473" fill="none" xmlns="http://www.w3.org/2000/svg">
<rect y="0.741699" width="309" height="471.419" rx="30" fill="#EDD869"/>
<path d="M43.3407 16.4866L42.0563 33.3614C41.9951 34.1664 41.0544 34.5707 40.4281 34.0612L25.4521 21.8776C24.8258 21.3682 25.0303 20.3649 25.806 20.1411L42.0664 15.4499C42.7364 15.2566 43.3936 15.7912 43.3407 16.4866Z" fill="#EDD869" stroke="white" stroke-width="2"/>
<path d="M32.814 27.5974C32.814 27.5974 23.6684 38.2748 22.3847 40.4171C21.101 42.5595 19.817 47.2301 26.1927 49.3192" stroke="white" stroke-width="2"/>
<path d="M13.2873 67.6667L14.5716 50.7919C14.6329 49.9869 15.5736 49.5826 16.1998 50.0921L31.1759 62.2757C31.8021 62.7852 31.5977 63.7884 30.822 64.0122L14.5616 68.7034C13.8915 68.8967 13.2343 68.3621 13.2873 67.6667Z" fill="#EDD869" stroke="white" stroke-width="2"/>
<path d="M23.8139 56.556C23.8139 56.556 32.9596 45.8785 34.2433 43.7362C35.527 41.5939 36.8109 36.9232 30.4353 34.8341" stroke="white" stroke-width="2"/>
<path d="M228.036 115.696L222.057 194.256C221.597 200.293 214.542 203.325 209.845 199.504L140.125 142.784C135.428 138.963 136.961 131.439 142.779 129.761L218.478 107.921C223.504 106.471 228.433 110.481 228.036 115.696Z" fill="#EDD869" stroke="white" stroke-width="5"/>
<path d="M174.942 168.693C174.942 168.693 132.031 218.756 126.028 228.817C120.025 238.879 114.099 260.862 144.308 270.91" stroke="white" stroke-width="5"/>
<path d="M80.9647 357.206L86.9439 278.647C87.4034 272.609 94.4585 269.577 99.1553 273.398L168.875 330.118C173.572 333.939 172.039 341.463 166.221 343.142L90.5221 364.982C85.4966 366.431 80.5678 362.422 80.9647 357.206Z" fill="#EDD869" stroke="white" stroke-width="5"/>
<path d="M134.012 303.745C134.012 303.745 176.766 253.83 182.767 243.816C188.768 233.801 194.77 211.967 164.966 202.201" stroke="white" stroke-width="5"/>
<path d="M291.341 408.487L290.056 425.361C289.995 426.166 289.054 426.571 288.428 426.061L273.452 413.878C272.826 413.368 273.03 412.365 273.806 412.141L290.066 407.45C290.736 407.257 291.394 407.791 291.341 408.487Z" fill="#EDD869" stroke="white" stroke-width="2"/>
<path d="M280.814 419.597C280.814 419.597 271.668 430.275 270.385 432.417C269.101 434.559 267.817 439.23 274.193 441.319" stroke="white" stroke-width="2"/>
<path d="M261.287 459.667L262.572 442.792C262.633 441.987 263.574 441.583 264.2 442.092L279.176 454.276C279.802 454.785 279.598 455.788 278.822 456.012L262.562 460.703C261.892 460.897 261.234 460.362 261.287 459.667Z" fill="#EDD869" stroke="white" stroke-width="2"/>
<path d="M271.814 448.556C271.814 448.556 280.96 437.878 282.243 435.736C283.527 433.594 284.811 428.923 278.435 426.834" stroke="white" stroke-width="2"/>
</svg>
