<svg width="310" height="472" viewBox="0 0 310 472" fill="none" xmlns="http://www.w3.org/2000/svg">
<rect x="0.296387" y="0.0117188" width="309" height="471.418" rx="30" fill="#EDD869"/>
<mask id="path-2-inside-1" fill="white">
<path d="M248.296 235.578C248.296 287.216 206.435 329.078 154.796 329.078C133.097 329.078 113.124 321.686 97.2579 309.282C75.3679 292.169 61.2964 265.517 61.2964 235.578C61.2964 183.939 103.158 142.078 154.796 142.078C178.574 142.078 200.279 150.953 216.778 165.573C236.111 182.702 248.296 207.717 248.296 235.578Z"/>
</mask>
<path d="M248.296 235.578C248.296 287.216 206.435 329.078 154.796 329.078C133.097 329.078 113.124 321.686 97.2579 309.282C75.3679 292.169 61.2964 265.517 61.2964 235.578C61.2964 183.939 103.158 142.078 154.796 142.078C178.574 142.078 200.279 150.953 216.778 165.573C236.111 182.702 248.296 207.717 248.296 235.578Z" fill="#EDD869"/>
<path d="M99.18 310.881L218.7 167.171L214.856 163.974L95.3358 307.684L99.18 310.881ZM97.2579 309.282L100.337 305.343L100.337 305.343L97.2579 309.282ZM216.778 165.573L213.462 169.315L213.462 169.315L216.778 165.573ZM243.296 235.578C243.296 284.455 203.674 324.078 154.796 324.078V334.078C209.196 334.078 253.296 289.978 253.296 235.578H243.296ZM66.2964 235.578C66.2964 186.7 105.919 147.078 154.796 147.078V137.078C100.396 137.078 56.2964 181.178 56.2964 235.578H66.2964ZM154.796 324.078C134.252 324.078 115.355 317.083 100.337 305.343L94.1784 313.221C110.892 326.288 131.942 334.078 154.796 334.078V324.078ZM100.337 305.343C79.6073 289.137 66.2964 263.913 66.2964 235.578H56.2964C56.2964 267.12 71.1284 295.201 94.1784 313.221L100.337 305.343ZM154.796 147.078C177.306 147.078 197.842 155.475 213.462 169.315L220.094 161.83C202.716 146.432 179.842 137.078 154.796 137.078V147.078ZM213.462 169.315C231.769 185.536 243.296 209.207 243.296 235.578H253.296C253.296 206.226 240.452 179.868 220.094 161.83L213.462 169.315Z" fill="white" mask="url(#path-2-inside-1)"/>
<mask id="path-4-inside-2" fill="white">
<path d="M64.5083 36.8921C64.5083 51.31 52.8202 62.998 38.4023 62.998C32.3436 62.998 26.767 60.9341 22.3371 57.4709C16.2253 52.6928 12.2964 45.2513 12.2964 36.8921C12.2964 22.4742 23.9844 10.7861 38.4023 10.7861C45.0413 10.7861 51.1014 13.2643 55.7081 17.3461C61.1059 22.1288 64.5083 29.1131 64.5083 36.8921Z"/>
</mask>
<path d="M64.5083 36.8921C64.5083 51.31 52.8202 62.998 38.4023 62.998C32.3436 62.998 26.767 60.9341 22.3371 57.4709C16.2253 52.6928 12.2964 45.2513 12.2964 36.8921C12.2964 22.4742 23.9844 10.7861 38.4023 10.7861C45.0413 10.7861 51.1014 13.2643 55.7081 17.3461C61.1059 22.1288 64.5083 29.1131 64.5083 36.8921Z" fill="#EDD869"/>
<path d="M23.106 58.1104L56.4769 17.9855L54.9392 16.7067L21.5683 56.8315L23.106 58.1104ZM22.3371 57.4709L23.5689 55.8953L23.5689 55.8953L22.3371 57.4709ZM55.7081 17.3461L54.3817 18.843L54.3817 18.843L55.7081 17.3461ZM62.5083 36.8921C62.5083 50.2054 51.7157 60.998 38.4023 60.998V64.998C53.9248 64.998 66.5083 52.4145 66.5083 36.8921H62.5083ZM14.2964 36.8921C14.2964 23.5787 25.089 12.7861 38.4023 12.7861V8.78613C22.8798 8.78613 10.2964 21.3696 10.2964 36.8921H14.2964ZM38.4023 60.998C32.8057 60.998 27.6596 59.0932 23.5689 55.8953L21.1053 59.0466C25.8744 62.7749 31.8815 64.998 38.4023 64.998V60.998ZM23.5689 55.8953C17.921 51.4799 14.2964 44.6098 14.2964 36.8921H10.2964C10.2964 45.8927 14.5295 53.9058 21.1053 59.0466L23.5689 55.8953ZM38.4023 12.7861C44.534 12.7861 50.1267 15.0728 54.3817 18.843L57.0344 15.8492C52.076 11.4558 45.5485 8.78613 38.4023 8.78613V12.7861ZM54.3817 18.843C59.3693 23.2622 62.5083 29.7093 62.5083 36.8921H66.5083C66.5083 28.5169 62.8425 20.9953 57.0344 15.8492L54.3817 18.843Z" fill="white" mask="url(#path-4-inside-2)"/>
<mask id="path-6-inside-3" fill="white">
<path d="M294.638 434.262C294.638 448.68 282.95 460.367 268.533 460.367C262.474 460.367 256.898 458.303 252.468 454.84C246.356 450.062 242.428 442.621 242.428 434.262C242.428 419.845 254.115 408.157 268.533 408.157C275.171 408.157 281.231 410.635 285.838 414.717C291.235 419.499 294.638 426.484 294.638 434.262Z"/>
</mask>
<path d="M294.638 434.262C294.638 448.68 282.95 460.367 268.533 460.367C262.474 460.367 256.898 458.303 252.468 454.84C246.356 450.062 242.428 442.621 242.428 434.262C242.428 419.845 254.115 408.157 268.533 408.157C275.171 408.157 281.231 410.635 285.838 414.717C291.235 419.499 294.638 426.484 294.638 434.262Z" fill="#EDD869"/>
<path d="M253.237 455.48L286.607 415.356L285.069 414.078L251.699 454.201L253.237 455.48ZM252.468 454.84L253.7 453.265L253.7 453.265L252.468 454.84ZM285.838 414.717L284.512 416.214L284.512 416.214L285.838 414.717ZM292.638 434.262C292.638 447.575 281.846 458.367 268.533 458.367V462.367C284.055 462.367 296.638 449.784 296.638 434.262H292.638ZM244.428 434.262C244.428 420.949 255.22 410.157 268.533 410.157V406.157C253.011 406.157 240.428 418.74 240.428 434.262H244.428ZM268.533 458.367C262.936 458.367 257.79 456.463 253.7 453.265L251.236 456.416C256.005 460.144 262.012 462.367 268.533 462.367V458.367ZM253.7 453.265C248.052 448.85 244.428 441.98 244.428 434.262H240.428C240.428 443.263 244.661 451.275 251.236 456.416L253.7 453.265ZM268.533 410.157C274.664 410.157 280.257 412.444 284.512 416.214L287.164 413.22C282.206 408.827 275.679 406.157 268.533 406.157V410.157ZM284.512 416.214C289.499 420.633 292.638 427.08 292.638 434.262H296.638C296.638 425.887 292.972 418.366 287.164 413.22L284.512 416.214Z" fill="white" mask="url(#path-6-inside-3)"/>
</svg>
