<svg width="309" height="472" viewBox="0 0 309 472" fill="none" xmlns="http://www.w3.org/2000/svg">
<rect y="0.000976562" width="309" height="471.42" rx="30" fill="#69C5ED"/>
<path d="M20.2188 35.1875L22.3438 13.5H44.5312V15.1562H23.875L22.0312 33.4062C23.1146 32.5104 24.5417 31.7812 26.3125 31.2188C28.1042 30.6562 29.8542 30.375 31.5625 30.375C35.6458 30.375 38.9062 31.6667 41.3438 34.25C43.7812 36.8333 45 40.25 45 44.5C45 49.4375 43.8958 53.1979 41.6875 55.7812C39.4792 58.3438 36.3125 59.625 32.1875 59.625C28.2917 59.625 25.1458 58.5104 22.75 56.2812C20.3542 54.0521 19 50.9688 18.6875 47.0312H20.4062C20.7396 50.5938 21.9062 53.3021 23.9062 55.1562C25.9062 57.0104 28.6667 57.9375 32.1875 57.9375C35.9375 57.9375 38.7188 56.8125 40.5312 54.5625C42.3646 52.2917 43.2812 48.9583 43.2812 44.5625C43.2812 40.7708 42.2188 37.7396 40.0938 35.4688C37.9896 33.1979 35.1562 32.0625 31.5938 32.0625C29.4062 32.0625 27.5 32.3542 25.875 32.9375C24.25 33.5208 22.7917 34.4375 21.5 35.6875L20.2188 35.1875Z" fill="white"/>
<path d="M131.242 230.915L136.023 182.118H185.945V185.845H139.469L135.32 226.907C137.758 224.892 140.969 223.251 144.953 221.986C148.984 220.72 152.922 220.087 156.766 220.087C165.953 220.087 173.289 222.993 178.773 228.806C184.258 234.618 187 242.306 187 251.868C187 262.978 184.516 271.439 179.547 277.251C174.578 283.017 167.453 285.9 158.172 285.9C149.406 285.9 142.328 283.392 136.938 278.376C131.547 273.361 128.5 266.423 127.797 257.564H131.664C132.414 265.579 135.039 271.673 139.539 275.845C144.039 280.017 150.25 282.103 158.172 282.103C166.609 282.103 172.867 279.572 176.945 274.509C181.07 269.4 183.133 261.9 183.133 252.009C183.133 243.478 180.742 236.657 175.961 231.548C171.227 226.439 164.852 223.884 156.836 223.884C151.914 223.884 147.625 224.54 143.969 225.853C140.312 227.165 137.031 229.228 134.125 232.04L131.242 230.915Z" fill="white"/>
<path d="M264.219 431.859L266.344 410.172H288.531V411.828H267.875L266.031 430.078C267.115 429.182 268.542 428.453 270.312 427.89C272.104 427.328 273.854 427.047 275.562 427.047C279.646 427.047 282.906 428.338 285.344 430.922C287.781 433.505 289 436.922 289 441.172C289 446.109 287.896 449.87 285.688 452.453C283.479 455.015 280.312 456.297 276.188 456.297C272.292 456.297 269.146 455.182 266.75 452.953C264.354 450.724 263 447.64 262.688 443.703H264.406C264.74 447.265 265.906 449.974 267.906 451.828C269.906 453.682 272.667 454.609 276.188 454.609C279.938 454.609 282.719 453.484 284.531 451.234C286.365 448.963 287.281 445.63 287.281 441.234C287.281 437.442 286.219 434.411 284.094 432.14C281.99 429.87 279.156 428.734 275.594 428.734C273.406 428.734 271.5 429.026 269.875 429.609C268.25 430.192 266.792 431.109 265.5 432.359L264.219 431.859Z" fill="white"/>
</svg>
