<svg width="309" height="473" viewBox="0 0 309 473" fill="none" xmlns="http://www.w3.org/2000/svg">
<rect width="309" height="471.419" rx="30" fill="#69C5ED"/>
<path d="M46.125 44.4242C46.125 50.5283 44.9375 55.2575 42.5625 58.6117C40.1875 61.945 36.8542 63.6117 32.5625 63.6117C28.2917 63.6117 24.9479 61.9242 22.5312 58.5492C20.1146 55.1742 18.9062 50.4242 18.9062 44.2992V36.0492C18.9062 30.0075 20.0938 25.2992 22.4688 21.9242C24.8646 18.5283 28.2083 16.8304 32.5 16.8304C36.8125 16.8304 40.1562 18.5283 42.5312 21.9242C44.9271 25.2992 46.125 30.0492 46.125 36.1742V44.4242ZM44.4375 36.0492C44.4375 30.5283 43.3958 26.2262 41.3125 23.1429C39.25 20.0596 36.3125 18.5179 32.5 18.5179C28.6667 18.5179 25.7188 20.07 23.6562 23.1742C21.6146 26.2575 20.5938 30.6012 20.5938 36.2054V44.3617C20.5938 49.8617 21.6458 54.1637 23.75 57.2679C25.8542 60.3721 28.7917 61.9242 32.5625 61.9242C36.3542 61.9242 39.2812 60.3721 41.3438 57.2679C43.4062 54.1637 44.4375 49.8096 44.4375 44.2054V36.0492Z" fill="white"/>
<path d="M177.031 242.726C177.031 256.461 174.359 267.101 169.016 274.648C163.672 282.148 156.172 285.898 146.516 285.898C136.906 285.898 129.383 282.101 123.945 274.508C118.508 266.914 115.789 256.226 115.789 242.445V223.883C115.789 210.289 118.461 199.695 123.805 192.101C129.195 184.461 136.719 180.64 146.375 180.64C156.078 180.64 163.602 184.461 168.945 192.101C174.336 199.695 177.031 210.383 177.031 224.164V242.726ZM173.234 223.883C173.234 211.461 170.891 201.781 166.203 194.844C161.562 187.906 154.953 184.437 146.375 184.437C137.75 184.437 131.117 187.93 126.477 194.914C121.883 201.851 119.586 211.625 119.586 224.234V242.586C119.586 254.961 121.953 264.64 126.688 271.625C131.422 278.609 138.031 282.101 146.516 282.101C155.047 282.101 161.633 278.609 166.273 271.625C170.914 264.64 173.234 254.844 173.234 242.234V223.883Z" fill="white"/>
<path d="M288.125 438.104C288.125 444.208 286.938 448.937 284.562 452.292C282.188 455.625 278.854 457.292 274.562 457.292C270.292 457.292 266.948 455.604 264.531 452.229C262.115 448.854 260.906 444.104 260.906 437.979V429.729C260.906 423.687 262.094 418.979 264.469 415.604C266.865 412.208 270.208 410.51 274.5 410.51C278.812 410.51 282.156 412.208 284.531 415.604C286.927 418.979 288.125 423.729 288.125 429.854V438.104ZM286.438 429.729C286.438 424.208 285.396 419.906 283.312 416.823C281.25 413.739 278.312 412.198 274.5 412.198C270.667 412.198 267.719 413.75 265.656 416.854C263.615 419.937 262.594 424.281 262.594 429.885V438.042C262.594 443.542 263.646 447.844 265.75 450.948C267.854 454.052 270.792 455.604 274.562 455.604C278.354 455.604 281.281 454.052 283.344 450.948C285.406 447.844 286.438 443.489 286.438 437.885V429.729Z" fill="white"/>
</svg>
