<svg width="309" height="472" viewBox="0 0 309 472" fill="none" xmlns="http://www.w3.org/2000/svg">
<rect width="309" height="471.419" rx="30" fill="#69EDA6"/>
<path d="M39.25 12.875V14.5625C32.875 14.5625 27.9271 16.4479 24.4062 20.2188C20.8854 23.9896 18.9896 29.2812 18.7188 36.0938C19.9271 33.9479 21.6771 32.25 23.9688 31C26.2604 29.7292 28.7708 29.0938 31.5 29.0938C35.5 29.0938 38.6875 30.4583 41.0625 33.1875C43.4583 35.9167 44.6562 39.5208 44.6562 44C44.6562 46.8958 44.1146 49.5417 43.0312 51.9375C41.9479 54.3333 40.4167 56.2188 38.4375 57.5938C36.4583 58.9479 34.25 59.625 31.8125 59.625C29.0208 59.625 26.5 58.9792 24.25 57.6875C22 56.3958 20.2396 54.5521 18.9688 52.1562C17.6979 49.7604 17.0417 47.0312 17 43.9688V38.375C17 30.2917 18.9062 24.0208 22.7188 19.5625C26.5312 15.1042 32.0417 12.875 39.25 12.875ZM31.2812 30.7812C28.3646 30.7812 25.6875 31.625 23.25 33.3125C20.8333 34.9792 19.3125 37.0729 18.6875 39.5938V43.5938C18.6875 47.8854 19.9062 51.3542 22.3438 54C24.7812 56.6458 27.9375 57.9688 31.8125 57.9688C35.0417 57.9688 37.7083 56.625 39.8125 53.9375C41.9167 51.2292 42.9688 47.9167 42.9688 44C42.9688 39.9583 41.9271 36.75 39.8438 34.375C37.7604 31.9792 34.9062 30.7812 31.2812 30.7812Z" fill="white"/>
<line x1="19" y1="65.375" x2="44" y2="65.375" stroke="white" stroke-width="1.25"/>
<path d="M174.062 180.71V184.507C159.719 184.507 148.586 188.749 140.664 197.233C132.742 205.718 128.477 217.624 127.867 232.952C130.586 228.124 134.523 224.304 139.68 221.491C144.836 218.632 150.484 217.202 156.625 217.202C165.625 217.202 172.797 220.272 178.141 226.413C183.531 232.554 186.227 240.663 186.227 250.741C186.227 257.257 185.008 263.21 182.57 268.601C180.133 273.991 176.688 278.233 172.234 281.327C167.781 284.374 162.812 285.897 157.328 285.897C151.047 285.897 145.375 284.444 140.312 281.538C135.25 278.632 131.289 274.483 128.43 269.093C125.57 263.702 124.094 257.562 124 250.671V238.085C124 219.897 128.289 205.788 136.867 195.757C145.445 185.726 157.844 180.71 174.062 180.71ZM156.133 220.999C149.57 220.999 143.547 222.897 138.062 226.694C132.625 230.444 129.203 235.155 127.797 240.827V249.827C127.797 259.483 130.539 267.288 136.023 273.241C141.508 279.194 148.609 282.171 157.328 282.171C164.594 282.171 170.594 279.147 175.328 273.101C180.062 267.007 182.43 259.554 182.43 250.741C182.43 241.647 180.086 234.429 175.398 229.085C170.711 223.694 164.289 220.999 156.133 220.999Z" fill="white"/>
<line x1="130" y1="298" x2="182" y2="298" stroke="white" stroke-width="2"/>
<path d="M284.25 399.875V401.562C277.875 401.562 272.927 403.448 269.406 407.219C265.885 410.99 263.99 416.281 263.719 423.094C264.927 420.948 266.677 419.25 268.969 418C271.26 416.729 273.771 416.094 276.5 416.094C280.5 416.094 283.688 417.458 286.062 420.188C288.458 422.917 289.656 426.521 289.656 431C289.656 433.896 289.115 436.542 288.031 438.938C286.948 441.333 285.417 443.219 283.438 444.594C281.458 445.948 279.25 446.625 276.812 446.625C274.021 446.625 271.5 445.979 269.25 444.688C267 443.396 265.24 441.552 263.969 439.156C262.698 436.76 262.042 434.031 262 430.969V425.375C262 417.292 263.906 411.021 267.719 406.562C271.531 402.104 277.042 399.875 284.25 399.875ZM276.281 417.781C273.365 417.781 270.688 418.625 268.25 420.312C265.833 421.979 264.312 424.073 263.688 426.594V430.594C263.688 434.885 264.906 438.354 267.344 441C269.781 443.646 272.938 444.969 276.812 444.969C280.042 444.969 282.708 443.625 284.812 440.938C286.917 438.229 287.969 434.917 287.969 431C287.969 426.958 286.927 423.75 284.844 421.375C282.76 418.979 279.906 417.781 276.281 417.781Z" fill="white"/>
<line x1="264" y1="452.375" x2="289" y2="452.375" stroke="white" stroke-width="1.25"/>
</svg>
