<svg width="309" height="472" viewBox="0 0 309 472" fill="none" xmlns="http://www.w3.org/2000/svg">
<rect width="309" height="471.418" rx="30" fill="#69EDA6"/>
<mask id="path-2-inside-1" fill="white">
<path d="M249 235.274C249 286.913 207.139 328.774 155.5 328.774C133.8 328.774 113.827 321.382 97.9615 308.979C76.0715 291.866 62 265.213 62 235.274C62 183.636 103.861 141.774 155.5 141.774C179.278 141.774 200.982 150.65 217.482 165.269C236.814 182.399 249 207.414 249 235.274Z"/>
</mask>
<path d="M249 235.274C249 286.913 207.139 328.774 155.5 328.774C133.8 328.774 113.827 321.382 97.9615 308.979C76.0715 291.866 62 265.213 62 235.274C62 183.636 103.861 141.774 155.5 141.774C179.278 141.774 200.982 150.65 217.482 165.269C236.814 182.399 249 207.414 249 235.274Z" fill="#69EDA6"/>
<path d="M99.8837 310.577L219.404 166.868L215.56 163.671L96.0394 307.38L99.8837 310.577ZM97.9615 308.979L101.041 305.04L97.9615 308.979ZM217.482 165.269L214.166 169.012L217.482 165.269ZM244 235.274C244 284.152 204.377 323.774 155.5 323.774V333.774C209.9 333.774 254 289.674 254 235.274H244ZM67 235.274C67 186.397 106.623 146.774 155.5 146.774V136.774C101.1 136.774 57 180.874 57 235.274H67ZM155.5 323.774C134.956 323.774 116.059 316.78 101.041 305.04L94.882 312.918C111.596 325.984 132.645 333.774 155.5 333.774V323.774ZM101.041 305.04C80.3109 288.834 67 263.61 67 235.274H57C57 266.817 71.832 294.898 94.882 312.918L101.041 305.04ZM155.5 146.774C178.01 146.774 198.546 155.172 214.166 169.012L220.798 161.527C203.419 146.129 180.546 136.774 155.5 136.774V146.774ZM214.166 169.012C232.473 185.232 244 208.904 244 235.274H254C254 205.923 241.156 179.565 220.798 161.527L214.166 169.012Z" fill="white" mask="url(#path-2-inside-1)"/>
<mask id="path-4-inside-2" fill="white">
<path d="M56 32.7744C56 44.9247 46.1503 54.7744 34 54.7744C28.8942 54.7744 24.1947 53.0351 20.4615 50.1166C15.3109 46.0901 12 39.8189 12 32.7744C12 20.6241 21.8497 10.7744 34 10.7744C39.5948 10.7744 44.7018 12.8628 48.5839 16.3026C53.1328 20.3331 56 26.2189 56 32.7744Z"/>
</mask>
<path d="M56 32.7744C56 44.9247 46.1503 54.7744 34 54.7744C28.8942 54.7744 24.1947 53.0351 20.4615 50.1166C15.3109 46.0901 12 39.8189 12 32.7744C12 20.6241 21.8497 10.7744 34 10.7744C39.5948 10.7744 44.7018 12.8628 48.5839 16.3026C53.1328 20.3331 56 26.2189 56 32.7744Z" fill="#69EDA6"/>
<path d="M21.2304 50.7561L49.3528 16.9421L47.8151 15.6632L19.6927 49.4772L21.2304 50.7561ZM20.4615 50.1166L21.6933 48.541L20.4615 50.1166ZM48.5839 16.3026L47.2576 17.7995L48.5839 16.3026ZM54 32.7744C54 43.8201 45.0457 52.7744 34 52.7744V56.7744C47.2548 56.7744 58 46.0292 58 32.7744H54ZM14 32.7744C14 21.7287 22.9543 12.7744 34 12.7744V8.77441C20.7452 8.77441 10 19.5196 10 32.7744H14ZM34 52.7744C29.3563 52.7744 25.0872 51.1943 21.6933 48.541L19.2297 51.6923C23.3021 54.8759 28.4321 56.7744 34 56.7744V52.7744ZM21.6933 48.541C17.0067 44.8771 14 39.1774 14 32.7744H10C10 40.4604 13.6152 47.303 19.2297 51.6923L21.6933 48.541ZM34 12.7744C39.0875 12.7744 43.7271 14.6714 47.2576 17.7995L49.9103 14.8057C45.6764 11.0543 40.102 8.77441 34 8.77441V12.7744ZM47.2576 17.7995C51.3962 21.4665 54 26.8151 54 32.7744H58C58 25.6227 54.8694 19.1997 49.9103 14.8057L47.2576 17.7995Z" fill="white" mask="url(#path-4-inside-2)"/>
<mask id="path-6-inside-3" fill="white">
<path d="M298 436.774C298 448.925 288.15 458.774 276 458.774C270.894 458.774 266.195 457.035 262.462 454.117C257.311 450.09 254 443.819 254 436.774C254 424.624 263.85 414.774 276 414.774C281.595 414.774 286.702 416.863 290.584 420.303C295.133 424.333 298 430.219 298 436.774Z"/>
</mask>
<path d="M298 436.774C298 448.925 288.15 458.774 276 458.774C270.894 458.774 266.195 457.035 262.462 454.117C257.311 450.09 254 443.819 254 436.774C254 424.624 263.85 414.774 276 414.774C281.595 414.774 286.702 416.863 290.584 420.303C295.133 424.333 298 430.219 298 436.774Z" fill="#69EDA6"/>
<path d="M263.23 454.756L291.353 420.942L289.815 419.663L261.693 453.477L263.23 454.756ZM262.462 454.117L263.693 452.541L262.462 454.117ZM290.584 420.303L289.258 421.8L290.584 420.303ZM296 436.774C296 447.82 287.046 456.774 276 456.774V460.774C289.255 460.774 300 450.029 300 436.774H296ZM256 436.774C256 425.729 264.954 416.774 276 416.774V412.774C262.745 412.774 252 423.52 252 436.774H256ZM276 456.774C271.356 456.774 267.087 455.194 263.693 452.541L261.23 455.692C265.302 458.876 270.432 460.774 276 460.774V456.774ZM263.693 452.541C259.007 448.877 256 443.177 256 436.774H252C252 444.46 255.615 451.303 261.23 455.692L263.693 452.541ZM276 416.774C281.087 416.774 285.727 418.671 289.258 421.8L291.91 418.806C287.676 415.054 282.102 412.774 276 412.774V416.774ZM289.258 421.8C293.396 425.467 296 430.815 296 436.774H300C300 429.623 296.869 423.2 291.91 418.806L289.258 421.8Z" fill="white" mask="url(#path-6-inside-3)"/>
</svg>
