<svg width="309" height="472" viewBox="0 0 309 472" fill="none" xmlns="http://www.w3.org/2000/svg">
<rect width="309" height="471.42" rx="30" fill="#ED6969"/>
<path d="M45 59H17.7812V57.3125L33.3125 39.4062C35.8542 36.4271 37.7396 33.7812 38.9688 31.4688C40.2188 29.1562 40.8438 27.0312 40.8438 25.0938C40.8438 21.7604 39.875 19.1771 37.9375 17.3438C36 15.4896 33.2708 14.5625 29.75 14.5625C27.625 14.5625 25.6875 15.0729 23.9375 16.0938C22.1875 17.1146 20.8125 18.5312 19.8125 20.3438C18.8333 22.1354 18.3438 24.1354 18.3438 26.3438H16.6562C16.6562 23.9062 17.2188 21.6458 18.3438 19.5625C19.4688 17.4792 21.0312 15.8438 23.0312 14.6562C25.0312 13.4688 27.2708 12.875 29.75 12.875C33.7917 12.875 36.9375 13.9479 39.1875 16.0938C41.4375 18.2396 42.5625 21.2396 42.5625 25.0938C42.5625 28.6354 40.5729 32.875 36.5938 37.8125L33.75 41.2812L20 57.3125H45V59Z" fill="white"/>
<path d="M187 284.492H125.758V280.695L160.703 240.406C166.422 233.703 170.664 227.75 173.43 222.547C176.242 217.343 177.648 212.562 177.648 208.203C177.648 200.703 175.469 194.89 171.109 190.765C166.75 186.593 160.609 184.507 152.688 184.507C147.906 184.507 143.547 185.656 139.609 187.953C135.672 190.25 132.578 193.437 130.328 197.515C128.125 201.547 127.023 206.047 127.023 211.015H123.227C123.227 205.531 124.492 200.445 127.023 195.757C129.555 191.07 133.07 187.39 137.57 184.718C142.07 182.047 147.109 180.711 152.688 180.711C161.781 180.711 168.859 183.125 173.922 187.953C178.984 192.781 181.516 199.531 181.516 208.203C181.516 216.172 177.039 225.711 168.086 236.82L161.688 244.625L130.75 280.695H187V284.492Z" fill="white"/>
<path d="M289 455.67H261.781V453.982L277.312 436.076C279.854 433.097 281.74 430.451 282.969 428.139C284.219 425.826 284.844 423.701 284.844 421.764C284.844 418.43 283.875 415.847 281.938 414.014C280 412.16 277.271 411.232 273.75 411.232C271.625 411.232 269.688 411.743 267.938 412.764C266.188 413.785 264.812 415.201 263.812 417.014C262.833 418.805 262.344 420.805 262.344 423.014H260.656C260.656 420.576 261.219 418.316 262.344 416.232C263.469 414.149 265.031 412.514 267.031 411.326C269.031 410.139 271.271 409.545 273.75 409.545C277.792 409.545 280.938 410.618 283.188 412.764C285.438 414.91 286.562 417.91 286.562 421.764C286.562 425.305 284.573 429.545 280.594 434.482L277.75 437.951L264 453.982H289V455.67Z" fill="white"/>
</svg>
