<svg width="309" height="472" viewBox="0 0 309 472" fill="none" xmlns="http://www.w3.org/2000/svg">
<rect width="309" height="471.418" rx="30" fill="#ED6969"/>
<path d="M43.8125 25.0625C43.8125 27.6042 43.0208 29.8333 41.4375 31.75C39.875 33.6458 37.8438 34.9688 35.3438 35.7188C38.3229 36.5104 40.6979 37.9479 42.4688 40.0312C44.2396 42.1146 45.125 44.4896 45.125 47.1562C45.125 51.0104 43.8021 54.0521 41.1562 56.2812C38.5312 58.5104 35.0312 59.625 30.6562 59.625C26.1979 59.625 22.6562 58.5104 20.0312 56.2812C17.4271 54.0521 16.125 51.0104 16.125 47.1562C16.125 44.4688 16.9792 42.0938 18.6875 40.0312C20.4167 37.9479 22.7708 36.5104 25.75 35.7188C23.25 34.9688 21.2292 33.6458 19.6875 31.75C18.1667 29.8333 17.4062 27.6042 17.4062 25.0625C17.4062 21.3125 18.6042 18.3438 21 16.1562C23.4167 13.9688 26.5938 12.875 30.5312 12.875C34.4896 12.875 37.6875 13.9896 40.125 16.2188C42.5833 18.4479 43.8125 21.3958 43.8125 25.0625ZM43.4062 47.3125C43.4062 44.1875 42.2083 41.6146 39.8125 39.5938C37.4167 37.5729 34.3438 36.5625 30.5938 36.5625C26.8229 36.5625 23.75 37.5729 21.375 39.5938C19 41.5938 17.8125 44.1667 17.8125 47.3125C17.8125 50.5208 18.9688 53.0938 21.2812 55.0312C23.6146 56.9688 26.7396 57.9375 30.6562 57.9375C34.4896 57.9375 37.5729 56.9688 39.9062 55.0312C42.2396 53.0729 43.4062 50.5 43.4062 47.3125ZM42.125 24.9062C42.125 21.9479 41.0104 19.4896 38.7812 17.5312C36.5521 15.5521 33.8021 14.5625 30.5312 14.5625C27.1771 14.5625 24.4271 15.5104 22.2812 17.4062C20.1562 19.3021 19.0938 21.8021 19.0938 24.9062C19.0938 27.8646 20.1562 30.2708 22.2812 32.125C24.4062 33.9583 27.1771 34.875 30.5938 34.875C33.9688 34.875 36.7292 33.9479 38.875 32.0938C41.0417 30.2188 42.125 27.8229 42.125 24.9062Z" fill="white"/>
<path d="M184.328 208.132C184.328 213.851 182.547 218.867 178.984 223.179C175.469 227.445 170.898 230.421 165.273 232.109C171.977 233.89 177.32 237.125 181.305 241.812C185.289 246.5 187.281 251.843 187.281 257.843C187.281 266.515 184.305 273.359 178.352 278.375C172.445 283.39 164.57 285.898 154.727 285.898C144.695 285.898 136.727 283.39 130.82 278.375C124.961 273.359 122.031 266.515 122.031 257.843C122.031 251.796 123.953 246.453 127.797 241.812C131.688 237.125 136.984 233.89 143.688 232.109C138.062 230.421 133.516 227.445 130.047 223.179C126.625 218.867 124.914 213.851 124.914 208.132C124.914 199.695 127.609 193.015 133 188.093C138.438 183.171 145.586 180.71 154.445 180.71C163.352 180.71 170.547 183.218 176.031 188.234C181.562 193.25 184.328 199.882 184.328 208.132ZM183.414 258.195C183.414 251.164 180.719 245.375 175.328 240.828C169.938 236.281 163.023 234.007 154.586 234.007C146.102 234.007 139.188 236.281 133.844 240.828C128.5 245.328 125.828 251.117 125.828 258.195C125.828 265.414 128.43 271.203 133.633 275.562C138.883 279.921 145.914 282.101 154.727 282.101C163.352 282.101 170.289 279.921 175.539 275.562C180.789 271.156 183.414 265.367 183.414 258.195ZM180.531 207.781C180.531 201.125 178.023 195.593 173.008 191.187C167.992 186.734 161.805 184.507 154.445 184.507C146.898 184.507 140.711 186.64 135.883 190.906C131.102 195.171 128.711 200.796 128.711 207.781C128.711 214.437 131.102 219.851 135.883 224.023C140.664 228.148 146.898 230.21 154.586 230.21C162.18 230.21 168.391 228.125 173.219 223.953C178.094 219.734 180.531 214.343 180.531 207.781Z" fill="white"/>
<path d="M287.812 421.729C287.812 424.271 287.021 426.5 285.438 428.417C283.875 430.312 281.844 431.635 279.344 432.385C282.323 433.177 284.698 434.614 286.469 436.698C288.24 438.781 289.125 441.156 289.125 443.823C289.125 447.677 287.802 450.719 285.156 452.948C282.531 455.177 279.031 456.292 274.656 456.292C270.198 456.292 266.656 455.177 264.031 452.948C261.427 450.719 260.125 447.677 260.125 443.823C260.125 441.135 260.979 438.76 262.688 436.698C264.417 434.614 266.771 433.177 269.75 432.385C267.25 431.635 265.229 430.312 263.688 428.417C262.167 426.5 261.406 424.271 261.406 421.729C261.406 417.979 262.604 415.01 265 412.823C267.417 410.635 270.594 409.542 274.531 409.542C278.49 409.542 281.688 410.656 284.125 412.885C286.583 415.114 287.812 418.062 287.812 421.729ZM287.406 443.979C287.406 440.854 286.208 438.281 283.812 436.26C281.417 434.239 278.344 433.229 274.594 433.229C270.823 433.229 267.75 434.239 265.375 436.26C263 438.26 261.812 440.833 261.812 443.979C261.812 447.187 262.969 449.76 265.281 451.698C267.615 453.635 270.74 454.604 274.656 454.604C278.49 454.604 281.573 453.635 283.906 451.698C286.24 449.739 287.406 447.167 287.406 443.979ZM286.125 421.573C286.125 418.614 285.01 416.156 282.781 414.198C280.552 412.219 277.802 411.229 274.531 411.229C271.177 411.229 268.427 412.177 266.281 414.073C264.156 415.969 263.094 418.469 263.094 421.573C263.094 424.531 264.156 426.937 266.281 428.792C268.406 430.625 271.177 431.542 274.594 431.542C277.969 431.542 280.729 430.614 282.875 428.76C285.042 426.885 286.125 424.489 286.125 421.573Z" fill="white"/>
</svg>
