<svg width="309" height="472" viewBox="0 0 309 472" fill="none" xmlns="http://www.w3.org/2000/svg">
<rect width="309" height="471.419" rx="30" fill="#ED6969"/>
<path d="M27.7656 35.6274H38.1484V38.2524H27.7656V49.5493H24.9297V38.2524H14.7578V35.6274H24.9297V24.7056H27.7656V35.6274ZM64.6797 52.9712H43.3047V50.8149L55 37.5493C56.9375 35.3149 58.2812 33.4712 59.0312 32.0181C59.7812 30.5649 60.1562 29.1509 60.1562 27.7759C60.1562 25.6196 59.5234 23.9165 58.2578 22.6665C56.9922 21.4009 55.25 20.7681 53.0312 20.7681C50.7344 20.7681 48.875 21.5024 47.4531 22.9712C46.0469 24.4399 45.3438 26.3462 45.3438 28.6899H42.5547C42.5547 26.7681 42.9844 25.0181 43.8438 23.4399C44.7188 21.8618 45.9531 20.6274 47.5469 19.7368C49.1562 18.8306 50.9844 18.3774 53.0312 18.3774C56.1562 18.3774 58.5938 19.1978 60.3438 20.8384C62.1094 22.479 62.9922 24.7134 62.9922 27.5415C62.9922 29.1353 62.4922 30.8774 61.4922 32.7681C60.5078 34.6587 58.7656 37.0181 56.2656 39.8462L46.75 50.604H64.6797V52.9712Z" fill="white"/>
<path d="M254.766 434.29H265.148V436.915H254.766V448.212H251.93V436.915H241.758V434.29H251.93V423.368H254.766V434.29ZM291.68 451.634H270.305V449.478L282 436.212C283.938 433.978 285.281 432.134 286.031 430.681C286.781 429.228 287.156 427.813 287.156 426.438C287.156 424.282 286.523 422.579 285.258 421.329C283.992 420.063 282.25 419.431 280.031 419.431C277.734 419.431 275.875 420.165 274.453 421.634C273.047 423.103 272.344 425.009 272.344 427.353H269.555C269.555 425.431 269.984 423.681 270.844 422.103C271.719 420.524 272.953 419.29 274.547 418.399C276.156 417.493 277.984 417.04 280.031 417.04C283.156 417.04 285.594 417.86 287.344 419.501C289.109 421.142 289.992 423.376 289.992 426.204C289.992 427.798 289.492 429.54 288.492 431.431C287.508 433.321 285.766 435.681 283.266 438.509L273.75 449.267H291.68V451.634Z" fill="white"/>
<rect x="135.5" y="105.156" width="108.017" height="167.422" rx="27.5" stroke="white" stroke-width="5"/>
<rect x="69.5" y="198.844" width="108.017" height="167.421" rx="27.5" fill="#ED6969" stroke="white" stroke-width="5"/>
</svg>
