<svg width="309" height="472" viewBox="0 0 309 472" fill="none" xmlns="http://www.w3.org/2000/svg">
<rect width="309" height="471.419" rx="30" fill="#EBED7F"/>
<path d="M43.3407 15.7449L42.0563 32.6197C41.9951 33.4247 41.0544 33.829 40.4281 33.3195L25.4521 21.1359C24.8258 20.6265 25.0303 19.6232 25.806 19.3994L42.0664 14.7082C42.7364 14.5149 43.3936 15.0495 43.3407 15.7449Z" stroke="white" stroke-width="2"/>
<path d="M32.814 26.8557C32.814 26.8557 23.6684 37.5331 22.3847 39.6754C21.101 41.8178 19.817 46.4884 26.1927 48.5775" stroke="white" stroke-width="2"/>
<path d="M13.2873 66.925L14.5716 50.0502C14.6329 49.2452 15.5736 48.8409 16.1998 49.3504L31.1759 61.534C31.8021 62.0435 31.5977 63.0467 30.822 63.2705L14.5616 67.9617C13.8915 68.155 13.2343 67.6204 13.2873 66.925Z" stroke="white" stroke-width="2"/>
<path d="M23.8139 55.8143C23.8139 55.8143 32.9596 45.1368 34.2433 42.9945C35.527 40.8522 36.8109 36.1815 30.4353 34.0924" stroke="white" stroke-width="2"/>
<path d="M229.035 127.85L223.056 206.41C222.597 212.447 215.542 215.479 210.845 211.658L141.125 154.938C136.428 151.117 137.961 143.593 143.779 141.914L219.478 120.075C224.503 118.625 229.432 122.635 229.035 127.85Z" stroke="white" stroke-width="5"/>
<path d="M175.941 180.847C175.941 180.847 133.031 230.91 127.028 240.971C121.025 251.033 115.099 273.016 145.308 283.064" stroke="white" stroke-width="5"/>
<path d="M81.9642 369.36L87.9434 290.8C88.4029 284.763 95.458 281.731 100.155 285.552L169.875 342.272C174.572 346.093 173.039 353.617 167.221 355.296L91.5216 377.135C86.4961 378.585 81.5673 374.575 81.9642 369.36Z" stroke="white" stroke-width="5"/>
<path d="M135.012 315.899C135.012 315.899 177.766 265.984 183.766 255.969C189.767 245.955 195.77 224.121 165.965 214.355" stroke="white" stroke-width="5"/>
<path d="M229.035 127.85L223.056 206.41C222.597 212.447 215.542 215.479 210.845 211.658L141.125 154.938C136.428 151.117 137.961 143.593 143.779 141.914L219.478 120.075C224.503 118.625 229.432 122.635 229.035 127.85Z" stroke="white" stroke-width="5"/>
<path d="M175.941 180.847C175.941 180.847 133.031 230.91 127.028 240.971C121.025 251.033 115.099 273.016 145.308 283.064" stroke="white" stroke-width="5"/>
<path d="M81.9642 369.36L87.9434 290.8C88.4029 284.763 95.458 281.731 100.155 285.552L169.875 342.272C174.572 346.093 173.039 353.617 167.221 355.296L91.5216 377.135C86.4961 378.585 81.5673 374.575 81.9642 369.36Z" stroke="white" stroke-width="5"/>
<path d="M135.012 315.899C135.012 315.899 177.766 265.984 183.766 255.969C189.767 245.955 195.77 224.121 165.965 214.355" stroke="white" stroke-width="5"/>
<path d="M291.341 407.745L290.056 424.62C289.995 425.425 289.054 425.829 288.428 425.32L273.452 413.136C272.826 412.626 273.03 411.623 273.806 411.399L290.066 406.708C290.736 406.515 291.394 407.05 291.341 407.745Z" stroke="white" stroke-width="2"/>
<path d="M280.814 418.856C280.814 418.856 271.668 429.533 270.385 431.675C269.101 433.818 267.817 438.488 274.193 440.577" stroke="white" stroke-width="2"/>
<path d="M261.287 458.925L262.572 442.05C262.633 441.245 263.574 440.841 264.2 441.35L279.176 453.534C279.802 454.043 279.598 455.047 278.822 455.271L262.562 459.962C261.892 460.155 261.234 459.62 261.287 458.925Z" stroke="white" stroke-width="2"/>
<path d="M271.814 447.814C271.814 447.814 280.96 437.137 282.243 434.994C283.527 432.852 284.811 428.182 278.435 426.092" stroke="white" stroke-width="2"/>
</svg>
